<svg width="40" height="35" viewBox="0 0 40 35" fill="none" xmlns="http://www.w3.org/2000/svg">
<path d="M20.0023 0.994252C23.8304 0.994241 27.5725 1.99143 30.7554 3.85972C33.9383 5.72801 36.4191 8.38349 37.884 11.4904C39.3489 14.5972 39.7322 18.0159 38.9854 21.3141C38.2386 24.6124 36.3952 27.642 33.6883 30.0199C30.0586 33.2085 25.1356 34.9999 20.0023 34.9999C14.8691 34.9999 9.94611 33.2085 6.31635 30.0199C2.6866 26.8312 0.647427 22.5065 0.647427 17.997C0.647427 13.4876 2.6866 9.16288 6.31635 5.97423C8.10944 4.39043 10.2423 3.13478 12.5915 2.27997C14.9407 1.42515 17.4596 0.988149 20.0023 0.994252ZM20.0023 32.7328C29.2516 32.7328 36.7766 26.1223 36.7766 17.997C36.7766 9.87176 29.2516 3.26129 20.0023 3.26129C10.7531 3.26129 3.22812 9.87176 3.22812 17.997C3.22812 26.1223 10.7531 32.7328 20.0023 32.7328Z" fill="#19ABE3" fill-opacity="0.3"/>
<path d="M17.689 9.26094L27.6337 17.997L17.689 26.7332L15.8643 25.1302L23.9841 17.997L15.8643 10.8639L17.689 9.26094Z" fill="#092E3D"/>
</svg>
