<svg width="40" height="35" viewBox="0 0 40 35" fill="none" xmlns="http://www.w3.org/2000/svg">
<path d="M19.8443 34.0056C16.0163 34.0056 12.2742 33.0084 9.0913 31.1402C5.9084 29.2719 3.42762 26.6164 1.96269 23.5095C0.497764 20.4027 0.114473 16.984 0.86129 13.6857C1.60811 10.3875 3.45149 7.3579 6.15833 4.98001C9.78808 1.79136 14.7111 -3.35979e-08 19.8443 0C24.9776 3.35979e-08 29.9006 1.79136 33.5303 4.98001C37.1601 8.16866 39.1993 12.4934 39.1993 17.0028C39.1993 21.5123 37.1601 25.837 33.5303 29.0256C31.7372 30.6095 29.6044 31.8651 27.2552 32.7199C24.906 33.5747 22.3871 34.0117 19.8443 34.0056ZM19.8443 2.26708C10.595 2.26708 3.0701 8.87755 3.0701 17.0028C3.0701 25.1281 10.595 31.7386 19.8443 31.7386C29.0936 31.7386 36.6186 25.1281 36.6186 17.0028C36.6186 8.87755 29.0936 2.26708 19.8443 2.26708Z" fill="#19ABE3" fill-opacity="0.3"/>
<path d="M22.1578 25.7389L12.2131 17.0028L22.1578 8.26672L23.9825 9.86966L15.8627 17.0028L23.9825 24.136L22.1578 25.7389Z" fill="#092E3D"/>
</svg>
