<svg width="146" height="131" viewBox="0 0 146 131" fill="none" xmlns="http://www.w3.org/2000/svg">
<g clip-path="url(#clip0_1_79)">
<path d="M136.081 24.5625H132.065C129.688 24.5625 127.406 25.4099 125.708 26.9205L113.443 37.859V32.75C113.443 25.9667 107.357 20.4688 99.8595 20.4688H13.8338C6.34498 20.4688 0.250732 25.9748 0.250732 32.75V61.2916V98.25C0.250732 105.029 6.3314 110.531 13.8338 110.531H99.8595C107.357 110.531 113.443 105.029 113.443 98.25V93.2515L125.708 104.19C127.406 105.701 129.688 106.548 132.065 106.548H136.081C141.079 106.548 145.136 102.884 145.136 98.3605V32.75C145.136 28.2264 141.079 24.5625 136.081 24.5625ZM13.8338 102.344C11.3345 102.344 9.30608 100.506 9.30608 98.25V32.75C9.30608 30.4862 11.3299 28.6562 13.8338 28.6562H99.8595C102.354 28.6562 104.387 30.4903 104.387 32.75V98.25C104.387 100.506 102.354 102.344 99.8595 102.344H13.8338ZM136.081 98.3605H132.065H131.553L113.443 81.9855V81.875L108.915 77.7812V53.2188L131.553 32.75H132.065H136.081V98.3605Z" fill="white"/>
</g>
<defs>
<clipPath id="clip0_1_79">
<rect width="144.886" height="131" fill="white" transform="translate(0.250732)"/>
</clipPath>
</defs>
</svg>
