<svg width="46" height="33" viewBox="0 0 46 33" fill="none" xmlns="http://www.w3.org/2000/svg">
<path d="M30.4847 18.8621C31.7849 17.3683 32.5477 15.596 32.5477 13.6908C32.5477 8.36767 26.6446 4.0509 19.3632 4.0509C12.0731 4.0509 6.16995 8.36767 6.16995 13.6908C6.16995 19.014 12.0731 23.3308 19.3545 23.3308C21.9984 23.3308 24.4602 22.7611 26.5232 21.7864L27.1214 21.4825L36.5352 28.3565L39.4564 26.1854L30.0513 19.3115L30.4847 18.8621ZM26.7486 8.30438C28.7163 9.74119 29.7999 11.6527 29.7999 13.6845C29.7999 15.7163 28.7163 17.6278 26.7486 19.0646C24.7809 20.5015 22.1631 21.2927 19.3805 21.2927C16.598 21.2927 13.9801 20.5015 12.0124 19.0646C10.0447 17.6278 8.96116 15.7163 8.96116 13.6845C8.96116 11.6527 10.0447 9.74119 12.0124 8.30438C13.9801 6.86756 16.598 6.07637 19.3805 6.07637C22.1631 6.07637 24.7809 6.86756 26.7486 8.30438Z" fill="#092E3D" fill-opacity="0.5"/>
</svg>
