<svg width="35" height="27" viewBox="0 0 35 27" fill="none" xmlns="http://www.w3.org/2000/svg">
<path d="M17.6925 23.7394C17.5211 23.7394 17.3526 23.7047 17.203 23.6387C14.2688 22.3481 11.8249 20.4629 10.124 18.178C8.42313 15.8931 7.527 13.2913 7.52826 10.6418C7.52826 10.5335 7.5296 10.4256 7.53227 10.318C7.59914 7.91965 8.73125 5.89992 10.8089 4.47768C12.6465 3.2226 15.0906 2.53125 17.6925 2.53125C20.2944 2.53125 22.7379 3.2226 24.5735 4.47768C26.6531 5.9015 27.7872 7.91965 27.8501 10.318C27.8501 10.4235 27.8548 10.5337 27.8548 10.6418C27.8566 13.3323 26.9321 15.9728 25.18 18.2814C23.4792 20.5176 21.0668 22.3644 18.182 23.6387C18.0324 23.7047 17.8639 23.7394 17.6925 23.7394ZM17.6925 4.11328C15.5734 4.11328 13.5961 4.66699 12.1256 5.67316C10.4853 6.7943 9.59053 8.41219 9.53838 10.3518C9.53838 10.4477 9.53436 10.5448 9.53436 10.6418C9.53337 12.934 10.2841 15.1875 11.7135 17.1834C13.143 19.1792 15.2027 20.8497 17.6925 22.0324C20.0589 20.9041 22.0396 19.3367 23.4621 17.4667C25.0268 15.4041 25.8523 13.0453 25.8507 10.6418C25.8507 10.5448 25.8507 10.4477 25.8467 10.3518C25.7938 8.41219 24.8991 6.7943 23.2595 5.67316C21.7883 4.66699 19.8116 4.11328 17.6925 4.11328Z" fill="white"/>
<path d="M17.7186 15.6409C16.4711 15.6409 15.2517 15.3492 14.2145 14.8027C13.1773 14.2561 12.3689 13.4793 11.8915 12.5705C11.4141 11.6616 11.2892 10.6615 11.5326 9.69666C11.7759 8.73182 12.3766 7.84555 13.2587 7.14994C14.1408 6.45433 15.2646 5.98061 16.4881 5.78869C17.7116 5.59677 18.9797 5.69527 20.1322 6.07173C21.2847 6.4482 22.2698 7.08571 22.9628 7.90367C23.6558 8.72162 24.0258 9.68328 24.0258 10.667C24.024 11.9858 23.3589 13.2501 22.1765 14.1826C20.994 15.1151 19.3908 15.6395 17.7186 15.6409ZM17.7186 7.27568C16.8679 7.27568 16.0363 7.47462 15.3289 7.84735C14.6216 8.22007 14.0703 8.74984 13.7448 9.36966C13.4193 9.98947 13.3342 10.6715 13.5002 11.3295C13.6662 11.9874 14.0759 12.5918 14.6775 13.0662C15.2791 13.5405 16.0455 13.8635 16.8799 13.9943C17.7143 14.1251 18.5791 14.0579 19.365 13.8011C20.1509 13.5443 20.8226 13.1095 21.2951 12.5516C21.7676 11.9937 22.0198 11.3379 22.0197 10.667C22.0177 9.76811 21.5638 8.90648 20.7576 8.27105C19.9513 7.63562 18.8584 7.27823 17.7186 7.27726V7.27568Z" fill="white"/>
</svg>
