<svg width="35" height="27" viewBox="0 0 35 27" fill="none" xmlns="http://www.w3.org/2000/svg">
<path d="M17.7495 21.2082C17.5781 21.2081 17.4096 21.1735 17.26 21.1075C14.3258 19.8169 11.8819 17.9317 10.181 15.6467C8.48014 13.3618 7.58401 10.7601 7.58527 8.11055C7.58527 8.00227 7.5866 7.89434 7.58928 7.78676C7.65615 5.3884 8.78826 3.36867 10.8659 1.94643C12.7035 0.691348 15.1476 0 17.7495 0C20.3514 0 22.7949 0.691348 24.6305 1.94643C26.7101 3.37025 27.8442 5.3884 27.9071 7.78676C27.9071 7.89223 27.9118 8.00244 27.9118 8.11055C27.9136 10.8011 26.9891 13.4415 25.237 15.7502C23.5362 17.9864 21.1238 19.8332 18.239 21.1075C18.0894 21.1735 17.9209 21.2081 17.7495 21.2082ZM17.7495 1.58203C15.6304 1.58203 13.6531 2.13574 12.1826 3.14191C10.5423 4.26305 9.64754 5.88094 9.59538 7.82051C9.59538 7.91649 9.59137 8.01352 9.59137 8.11055C9.59037 10.4028 10.3411 12.6562 11.7705 14.6521C13.2 16.648 15.2597 18.3184 17.7495 19.5012C20.1159 18.3729 22.0966 16.8055 23.5191 14.9354C25.0838 12.8728 25.9093 10.5141 25.9077 8.11055C25.9077 8.01352 25.9077 7.91649 25.9037 7.82051C25.8508 5.88094 24.9561 4.26305 23.3165 3.14191C21.8453 2.13574 19.8686 1.58203 17.7495 1.58203Z" fill="white"/>
<path d="M17.7756 13.1097C16.5282 13.1097 15.3087 12.818 14.2715 12.2714C13.2343 11.7249 12.4259 10.9481 11.9485 10.0392C11.4711 9.13034 11.3462 8.13026 11.5896 7.16541C11.833 6.20057 12.4337 5.3143 13.3158 4.61869C14.1978 3.92308 15.3217 3.44936 16.5451 3.25744C17.7686 3.06552 19.0368 3.16402 20.1893 3.54048C21.3418 3.91695 22.3268 4.55446 23.0198 5.37242C23.7129 6.19037 24.0828 7.15203 24.0828 8.13577C24.081 9.45451 23.416 10.7188 22.2335 11.6513C21.0511 12.5838 19.4478 13.1083 17.7756 13.1097ZM17.7756 4.74443C16.9249 4.74443 16.0933 4.94337 15.386 5.3161C14.6787 5.68882 14.1274 6.21859 13.8019 6.83841C13.4763 7.45822 13.3912 8.14024 13.5572 8.79822C13.7232 9.45619 14.1329 10.0606 14.7345 10.5349C15.3361 11.0092 16.1025 11.3322 16.9369 11.4631C17.7713 11.5939 18.6361 11.5266 19.422 11.2698C20.2079 11.013 20.8796 10.5782 21.3522 10.0203C21.8247 9.46248 22.0768 8.80665 22.0767 8.13577C22.0747 7.23686 21.6209 6.37523 20.8146 5.7398C20.0084 5.10437 18.9155 4.74698 17.7756 4.74601V4.74443Z" fill="white"/>
</svg>
