<svg width="33" height="25" viewBox="0 0 33 25" fill="none" xmlns="http://www.w3.org/2000/svg">
<g clip-path="url(#clip0_1_316)">
<path d="M16.534 0C7.79409 0 0.683334 5.6071 0.683334 12.5C0.683334 14.6281 1.38377 16.7338 2.70917 18.5984C2.72723 18.6401 2.75174 18.6808 2.78399 18.7195C3.2761 19.3115 1.73463 20.4864 0.956155 20.932C0.767825 21.0398 0.665275 21.2189 0.686559 21.401C0.707198 21.5841 0.849091 21.7448 1.05935 21.8241C1.16577 21.8638 3.57214 22.7478 6.15007 21.9269C9.0421 23.9115 12.7126 25 16.534 25C25.274 25 32.3847 19.3929 32.3847 12.5C32.3847 5.6071 25.274 0 16.534 0Z" fill="#26ADE2"/>
<path d="M19.0506 22.7317C14.6913 23.3708 10.644 22.3064 7.73879 20.2561C5.66966 21.0421 3.57956 20.5401 3.57956 20.5401L3.60705 20.5186C4.89755 19.4975 5.15231 17.9581 4.42076 16.637C3.38091 14.7591 3.01764 12.5968 3.60826 10.3284C4.69052 6.17206 9.03654 2.89282 14.3492 2.22156C23.3714 1.08166 31.0472 7.15505 29.5567 14.2754C28.6703 18.5104 24.4018 21.9472 19.0506 22.7317Z" fill="white"/>
<path opacity="0.2" d="M19.0506 22.7318C14.6913 23.3709 10.644 22.3064 7.73878 20.2562C5.85294 20.8864 4.2342 20.7108 3.57955 20.5402C3.50974 20.6048 3.44838 20.6733 3.37115 20.7343L3.34366 20.7558C3.34366 20.7558 5.66965 21.3025 7.73878 20.5166C10.644 22.5669 14.6913 23.6313 19.0506 22.9922C24.4018 22.2076 28.6703 18.7709 29.5567 14.5358C29.6659 14.0141 29.7117 13.5007 29.7256 12.9927C29.7009 13.4157 29.6472 13.8434 29.5567 14.2754C28.6703 18.5104 24.4018 21.9472 19.0506 22.7318Z" fill="white"/>
<path opacity="0.2" d="M16.534 0.260417C25.2183 0.260417 32.2865 5.7977 32.3763 12.6302C32.3769 12.5863 32.3847 12.5439 32.3847 12.5C32.3847 5.6071 25.274 0 16.534 0C7.79409 0 0.683334 5.6071 0.683334 12.5C0.683334 12.5383 0.692203 12.5761 0.692686 12.6144C0.79322 5.78931 7.85657 0.260417 16.534 0.260417Z" fill="white"/>
<path opacity="0.1" d="M16.5336 24.7397C12.7122 24.7397 9.04168 23.6512 6.14966 21.6665C3.57172 22.4875 1.16536 21.6035 1.05894 21.5638C0.883424 21.4976 0.773699 21.3687 0.724198 21.2233C0.704446 21.2816 0.67897 21.3394 0.686145 21.401C0.706784 21.5841 0.848677 21.7449 1.05894 21.8242C1.16536 21.8639 3.57172 22.7479 6.14966 21.927C9.04168 23.9116 12.7122 25.0001 16.5336 25.0001C25.2736 25.0001 32.3843 19.393 32.3843 12.5001C32.3843 12.4561 32.3765 12.4137 32.3759 12.3699C32.2861 19.2024 25.2178 24.7397 16.5336 24.7397Z" fill="#010101"/>
<path opacity="0.1" d="M14.3492 2.20535C22.7103 1.149 29.9009 6.29026 29.7256 12.716C30.1077 6.16844 22.824 0.874215 14.3492 1.94494C9.03653 2.6162 4.6905 5.89544 3.60825 10.0518C3.38437 10.9118 3.29875 11.7562 3.3339 12.5759C3.32551 11.8377 3.40783 11.0818 3.60825 10.3122C4.6905 6.15585 9.03653 2.87661 14.3492 2.20535Z" fill="#010101"/>
<path d="M7.94824 10.4167C7.58319 10.4167 7.2878 10.6497 7.2878 10.9376V15.1042C7.2878 15.3921 7.58319 15.6251 7.94824 15.6251C8.31329 15.6251 8.60869 15.3921 8.60869 15.1042V10.9376C8.60869 10.6497 8.31329 10.4167 7.94824 10.4167Z" fill="#26ADE2"/>
<path d="M23.1385 10.4167C21.6815 10.4167 20.4967 11.3516 20.4967 12.5001V13.5417C20.4967 14.6902 21.6815 15.6251 23.1385 15.6251C24.5955 15.6251 25.7803 14.6902 25.7803 13.5417V12.5001C25.7803 11.3516 24.5955 10.4167 23.1385 10.4167ZM24.4594 13.5417C24.4594 14.1165 23.8667 14.5834 23.1385 14.5834C22.4103 14.5834 21.8176 14.1165 21.8176 13.5417V12.5001C21.8176 11.9253 22.4103 11.4584 23.1385 11.4584C23.8667 11.4584 24.4594 11.9253 24.4594 12.5001V13.5417Z" fill="#26ADE2"/>
<path d="M16.534 10.4167C15.7412 10.4167 15.0372 10.6993 14.5527 11.1368C14.0682 10.6993 13.3642 10.4167 12.5714 10.4167C12.0664 10.4167 11.5942 10.5286 11.1924 10.724C11.0886 10.5429 10.8583 10.4167 10.59 10.4167C10.225 10.4167 9.92958 10.6497 9.92958 10.9376V15.1042C9.92958 15.3921 10.225 15.6251 10.59 15.6251C10.9551 15.6251 11.2505 15.3921 11.2505 15.1042V12.5001C11.2505 11.9253 11.8432 11.4584 12.5714 11.4584C13.2995 11.4584 13.8923 11.9253 13.8923 12.5001V15.1042C13.8923 15.3921 14.1876 15.6251 14.5527 15.6251C14.9178 15.6251 15.2131 15.3921 15.2131 15.1042V12.5001C15.2131 11.9253 15.8059 11.4584 16.534 11.4584C17.2622 11.4584 17.8549 11.9253 17.8549 12.5001V15.1042C17.8549 15.3921 18.1503 15.6251 18.5154 15.6251C18.8804 15.6251 19.1758 15.3921 19.1758 15.1042V12.5001C19.1758 11.3516 17.991 10.4167 16.534 10.4167Z" fill="#26ADE2"/>
<path d="M7.94824 9.37492C8.313 9.37492 8.60869 9.14173 8.60869 8.85409C8.60869 8.56644 8.313 8.33325 7.94824 8.33325C7.58349 8.33325 7.2878 8.56644 7.2878 8.85409C7.2878 9.14173 7.58349 9.37492 7.94824 9.37492Z" fill="#26ADE2"/>
<path d="M16.534 0C7.79409 0 0.683334 5.6071 0.683334 12.5C0.683334 14.6281 1.38377 16.7338 2.70917 18.5984C2.72723 18.6401 2.75174 18.6808 2.78399 18.7195C3.2761 19.3115 1.73463 20.4864 0.956155 20.932C0.767825 21.0398 0.665275 21.2189 0.686559 21.401C0.707198 21.5841 0.849091 21.7448 1.05935 21.8241C1.16577 21.8638 3.57214 22.7478 6.15007 21.9269C9.0421 23.9115 12.7126 25 16.534 25C25.274 25 32.3847 19.3929 32.3847 12.5C32.3847 5.6071 25.274 0 16.534 0Z" fill="url(#paint0_linear_1_316)"/>
</g>
<defs>
<linearGradient id="paint0_linear_1_316" x1="1.87207" y1="7.71989" x2="27.7878" y2="23.044" gradientUnits="userSpaceOnUse">
<stop stop-color="white" stop-opacity="0.2"/>
<stop offset="1" stop-color="white" stop-opacity="0"/>
</linearGradient>
<clipPath id="clip0_1_316">
<rect width="31.7014" height="25" fill="white" transform="translate(0.683334)"/>
</clipPath>
</defs>
</svg>
