<svg width="231" height="208" viewBox="0 0 231 208" fill="none" xmlns="http://www.w3.org/2000/svg">
<path fill-rule="evenodd" clip-rule="evenodd" d="M192.873 114.117C191.787 110.714 189.905 107.595 187.286 104.776C184.542 101.829 180.937 99.548 176.466 97.8991C171.991 96.2632 166.245 95.4344 159.164 95.4344H149.554C150.7 83.3917 154.912 73.1427 162.2 64.6698C169.475 56.2233 179.563 48.7898 192.459 42.4132L184.637 30.0723C167.658 37.4356 153.129 48.2065 141.06 62.4332C128.995 76.673 122.987 90.7813 122.987 104.776C122.987 119.809 126.471 131.602 133.496 140.114C140.522 148.627 150.584 152.867 163.665 152.867C171.965 152.867 179.176 150.048 185.309 144.412C191.434 138.785 194.505 132.194 194.505 124.677C194.505 121.05 193.967 117.52 192.873 114.117ZM105.021 114.117C103.927 110.714 102.049 107.595 99.4257 104.776C96.6906 101.829 93.0811 99.548 88.6058 97.8991C84.1392 96.2632 78.3933 95.4344 71.3078 95.4344H61.6939C62.8439 83.3917 67.0522 73.1427 74.3358 64.6698C81.6151 56.2233 91.7115 48.7898 104.599 42.4132L96.7811 30.0723C79.7974 37.4356 65.2775 48.2065 53.2042 62.4332C41.1394 76.673 35.135 90.7813 35.135 104.776C35.135 119.809 38.611 131.602 45.6405 140.114C52.6571 148.627 62.7191 152.867 75.8089 152.867C84.1048 152.867 91.3237 150.048 97.4573 144.412C103.582 138.785 106.649 132.194 106.649 124.677C106.649 121.05 106.102 117.52 105.021 114.117Z" fill="#4AB449" fill-opacity="0.12"/>
</svg>
