<svg width="33" height="25" viewBox="0 0 33 25" fill="none" xmlns="http://www.w3.org/2000/svg">
<g clip-path="url(#clip0_1_331)">
<path fill-rule="evenodd" clip-rule="evenodd" d="M28.4921 0C30.6298 0 32.3653 1.36865 32.3653 3.05439V21.9456C32.3653 23.6313 30.6297 25 28.4921 25H4.53702C2.39941 25 0.663879 23.6313 0.663879 21.9456V3.05439C0.663879 1.36865 2.39934 0 4.53702 0L28.4921 0ZM16.5146 3.95508C13.5719 3.95508 13.2028 3.96489 12.0472 4.00649C10.8938 4.048 10.1062 4.19243 9.41693 4.40371C8.70439 4.62207 8.10015 4.91426 7.49776 5.38926C6.89537 5.86431 6.52486 6.34087 6.24797 6.90273C5.98012 7.44629 5.79697 8.06743 5.74427 8.97695C5.69158 9.88833 5.67914 10.1793 5.67914 12.5C5.67914 14.8207 5.69158 15.1117 5.74427 16.023C5.79697 16.9326 5.98012 17.5537 6.24797 18.0973C6.52486 18.6591 6.89537 19.1357 7.49776 19.6107C8.10015 20.0858 8.70439 20.378 9.41693 20.5963C10.1062 20.8076 10.8938 20.952 12.0472 20.9935C13.2028 21.0351 13.5719 21.0449 16.5146 21.0449C19.4573 21.0449 19.8263 21.0351 20.982 20.9935C22.1353 20.952 22.923 20.8076 23.6122 20.5963C24.3247 20.378 24.929 20.0858 25.5314 19.6107C26.1338 19.1357 26.5043 18.6591 26.7812 18.0973C27.049 17.5537 27.2322 16.9326 27.2848 16.023C27.3376 15.1117 27.35 14.8207 27.35 12.5C27.35 10.1793 27.3376 9.88833 27.2848 8.97695C27.2322 8.06743 27.049 7.44629 26.7812 6.90273C26.5043 6.34087 26.1338 5.86431 25.5314 5.38926C24.929 4.91426 24.3247 4.62207 23.6122 4.40371C22.923 4.19243 22.1353 4.048 20.982 4.00649C19.8263 3.96489 19.4573 3.95508 16.5146 3.95508ZM16.5146 5.49473C19.4078 5.49473 19.7505 5.50342 20.893 5.54453C21.9494 5.58257 22.5232 5.72178 22.905 5.83872C23.4108 5.99375 23.7717 6.17896 24.1509 6.47793C24.5301 6.77695 24.7649 7.06162 24.9614 7.46045C25.1098 7.76157 25.2863 8.21401 25.3345 9.04712C25.3866 9.94814 25.3977 10.2184 25.3977 12.5C25.3977 14.7816 25.3866 15.0519 25.3345 15.9529C25.2863 16.786 25.1098 17.2384 24.9614 17.5396C24.7649 17.9384 24.5301 18.223 24.1509 18.5221C23.7717 18.8211 23.4108 19.0063 22.905 19.1613C22.5232 19.2783 21.9494 19.4175 20.893 19.4555C19.7507 19.4966 19.4079 19.5053 16.5146 19.5053C13.6212 19.5053 13.2786 19.4966 12.1361 19.4555C11.0797 19.4175 10.506 19.2783 10.1241 19.1613C9.61835 19.0063 9.25743 18.8211 8.87825 18.5221C8.49908 18.223 8.26423 17.9384 8.0677 17.5396C7.91935 17.2384 7.74282 16.786 7.69459 15.9529C7.64246 15.0519 7.63144 14.7816 7.63144 12.5C7.63144 10.2184 7.64246 9.94814 7.69459 9.04712C7.74282 8.21401 7.91935 7.76157 8.0677 7.46045C8.26423 7.06162 8.49908 6.77695 8.87825 6.47793C9.25743 6.17896 9.61835 5.99375 10.1241 5.83872C10.506 5.72178 11.0797 5.58257 12.1361 5.54453C13.2787 5.50342 13.6214 5.49473 16.5146 5.49473ZM16.5146 8.11206C13.4416 8.11206 10.9504 10.0766 10.9504 12.5C10.9504 14.9234 13.4416 16.8879 16.5146 16.8879C19.5876 16.8879 22.0787 14.9234 22.0787 12.5C22.0787 10.0766 19.5876 8.11206 16.5146 8.11206ZM16.5146 15.3483C14.5198 15.3483 12.9028 14.0731 12.9028 12.5C12.9028 10.9269 14.5198 9.65171 16.5146 9.65171C18.5093 9.65171 20.1264 10.9269 20.1264 12.5C20.1264 14.0731 18.5093 15.3483 16.5146 15.3483ZM23.5988 7.93872C23.5988 8.50503 23.0166 8.96406 22.2985 8.96406C21.5805 8.96406 20.9983 8.50503 20.9983 7.93872C20.9983 7.37241 21.5805 6.91333 22.2985 6.91333C23.0166 6.91333 23.5988 7.37241 23.5988 7.93872Z" fill="white"/>
</g>
<defs>
<clipPath id="clip0_1_331">
<rect width="31.7014" height="25" fill="white" transform="translate(0.663879)"/>
</clipPath>
</defs>
</svg>
