<svg width="32" height="25" viewBox="0 0 32 25" fill="none" xmlns="http://www.w3.org/2000/svg">
<g clip-path="url(#clip0_1_329)">
<path fill-rule="evenodd" clip-rule="evenodd" d="M28.038 0C30.1756 0 31.9111 1.36865 31.9111 3.05439V21.9456C31.9111 23.6313 30.1756 25 28.038 25H4.08286C1.94524 25 0.209717 23.6313 0.209717 21.9456V3.05439C0.209717 1.36865 1.94518 0 4.08286 0L28.038 0ZM24.4051 6.2355C22.3097 4.58115 19.5232 3.66968 16.5542 3.6687C10.4369 3.6687 5.45809 7.59473 5.45568 12.4204C5.45487 13.963 5.96593 15.4686 6.93716 16.7959L5.36268 21.3313L11.2461 20.1143C12.8671 20.8115 14.6923 21.1791 16.5497 21.1795H16.5543C22.671 21.1795 27.6502 17.2531 27.6527 12.4274C27.6538 10.0888 26.5004 7.8898 24.4051 6.2355ZM16.5543 19.7014H16.5505C14.8953 19.7009 13.2718 19.3502 11.8555 18.6874L11.5186 18.5297L8.02739 19.252L8.95924 16.5676L8.73993 16.2923C7.81656 15.1341 7.32878 13.7955 7.32953 12.4209C7.33157 8.41006 11.4697 5.14692 16.558 5.14692C19.0218 5.14761 21.3379 5.90527 23.0796 7.28032C24.8212 8.65532 25.7797 10.4831 25.7788 12.4268C25.7767 16.438 21.6387 19.7014 16.5543 19.7014ZM21.6142 14.2531C21.3368 14.1437 19.9734 13.6147 19.7193 13.5417C19.4651 13.4687 19.2802 13.4322 19.0953 13.6511C18.9104 13.87 18.379 14.3626 18.2172 14.5086C18.0555 14.6545 17.8937 14.6729 17.6164 14.5633C17.3391 14.4539 16.4456 14.2229 15.3864 13.4778C14.562 12.8979 14.0054 12.1818 13.8437 11.9629C13.6819 11.7439 13.8264 11.6256 13.9652 11.5166C14.09 11.4186 14.2426 11.2611 14.3812 11.1334C14.5199 11.0058 14.5661 10.9145 14.6586 10.7686C14.751 10.6226 14.7048 10.495 14.6354 10.3855C14.5661 10.2761 14.0115 9.19956 13.7804 8.76167C13.5553 8.33525 13.3267 8.39302 13.1565 8.38628C12.9949 8.37993 12.8098 8.37856 12.625 8.37856C12.4401 8.37856 12.1397 8.4333 11.8855 8.6522C11.6313 8.87114 10.9149 9.40024 10.9149 10.4766C10.9149 11.5531 11.9086 12.5929 12.0472 12.7389C12.1859 12.8849 14.0027 15.0937 16.7845 16.041C17.4461 16.2664 17.9627 16.4009 18.3654 16.5017C19.0297 16.6682 19.6342 16.6447 20.1121 16.5883C20.6449 16.5256 21.7528 16.0594 21.9839 15.5485C22.2149 15.0376 22.2149 14.5998 22.1456 14.5086C22.0763 14.4173 21.8914 14.3626 21.6142 14.2531Z" fill="white"/>
</g>
<defs>
<clipPath id="clip0_1_329">
<rect width="31.7014" height="25" fill="white" transform="translate(0.209717)"/>
</clipPath>
</defs>
</svg>
