<svg width="32" height="25" viewBox="0 0 32 25" fill="none" xmlns="http://www.w3.org/2000/svg">
<g clip-path="url(#clip0_1_312)">
<path d="M27.9679 25H4.19185C2.00445 25 0.229172 23.6 0.229172 21.875V3.125C0.229172 1.4 2.00445 0 4.19185 0H27.9679C30.1553 0 31.9306 1.4 31.9306 3.125V21.875C31.9306 23.6 30.1553 25 27.9679 25Z" fill="white"/>
<path d="M12.4025 18.8499C19.8761 18.8499 23.9656 13.9624 23.9656 9.73115C23.9656 9.59365 23.9656 9.45615 23.9577 9.31865C24.7502 8.86865 25.4397 8.2999 25.9866 7.65615C25.2574 7.9124 24.4728 8.08115 23.6486 8.1624C24.4887 7.76865 25.1306 7.1374 25.4397 6.3874C24.6551 6.75615 23.7833 7.01865 22.856 7.1624C22.1111 6.5374 21.057 6.1499 19.892 6.1499C17.6491 6.1499 15.8263 7.5874 15.8263 9.35615C15.8263 9.60615 15.8659 9.8499 15.9293 10.0874C12.5531 9.95615 9.5573 8.6749 7.55219 6.7374C7.20348 7.2124 7.00534 7.7624 7.00534 8.3499C7.00534 9.4624 7.72655 10.4437 8.81232 11.0187C8.14659 10.9999 7.52049 10.8562 6.97364 10.6187V10.6624C6.97364 12.2124 8.37643 13.5124 10.231 13.8062C9.89017 13.8812 9.53353 13.9187 9.16104 13.9187C8.8995 13.9187 8.64589 13.8999 8.4002 13.8624C8.91535 15.1374 10.4212 16.0624 12.1964 16.0874C10.8016 16.9499 9.05008 17.4624 7.148 17.4624C6.82306 17.4624 6.49812 17.4499 6.18111 17.4187C7.97224 18.3187 10.1121 18.8499 12.4025 18.8499Z" fill="#26ADE2"/>
</g>
<defs>
<clipPath id="clip0_1_312">
<rect width="31.7014" height="25" fill="white" transform="translate(0.229172)"/>
</clipPath>
</defs>
</svg>
