<svg width="28" height="23" viewBox="0 0 28 23" fill="none" xmlns="http://www.w3.org/2000/svg">
<g clip-path="url(#clip0_1_301)">
<rect width="27.8972" height="22" transform="translate(0.0430527 0.527344)" fill="#26ADE2"/>
<path d="M11.3764 2.58984C11.3733 2.58984 11.3702 2.58984 11.3667 2.58984C11.3654 2.58984 11.3639 2.58984 11.3622 2.58984C11.3578 2.58984 11.3534 2.59056 11.3489 2.59056C5.10187 2.60172 0.0430527 6.59844 0.0430527 11.5273C0.0430527 16.4548 5.10187 20.4523 11.3489 20.4641C11.3534 20.4641 11.3578 20.4648 11.3622 20.4648C11.3639 20.4648 11.3653 20.4648 11.3667 20.4648C11.3702 20.4648 11.3733 20.4648 11.3764 20.4648C17.6343 20.4648 22.7095 16.4625 22.7095 11.5273C22.7095 6.59147 17.6343 2.58984 11.3764 2.58984ZM11.8295 7.93838C13.031 7.91254 14.2006 7.78756 15.326 7.57112C15.666 8.62477 15.8759 9.83902 15.9095 11.1698H11.8294V7.93838H11.8295ZM11.8295 7.22338V3.36141C13.0523 3.62814 14.2901 4.91291 15.079 6.88336C14.0324 7.08232 12.946 7.19826 11.8295 7.22338ZM10.9231 3.35301V7.22338C9.79775 7.19826 8.70243 7.08024 7.64748 6.87776C8.44299 4.89543 9.69279 3.60578 10.9231 3.35301ZM10.9231 7.93766V11.1698H6.81519C6.84837 9.83686 7.05956 8.62122 7.3991 7.56688C8.53375 7.78544 9.71181 7.91254 10.9231 7.93766ZM5.90275 11.1698H0.961228C1.06127 9.33209 1.92942 7.64793 3.3195 6.31427C4.32889 6.75278 5.39981 7.11168 6.52166 7.37981C6.15554 8.52 5.93593 9.80546 5.90275 11.1698ZM5.90275 11.8848C5.93593 13.2485 6.15554 14.534 6.52171 15.6742C5.40027 15.943 4.32893 16.3019 3.31954 16.7404C1.92947 15.4068 1.06132 13.7226 0.961273 11.8848H5.90275ZM6.81519 11.8848H10.9231V15.1128C9.71186 15.138 8.53334 15.2658 7.39869 15.485C7.05911 14.4313 6.84837 13.2164 6.81519 11.8848ZM10.9231 15.8271V19.7017C9.69192 19.4482 8.44126 18.1571 7.64616 16.1727C8.70152 15.9703 9.79725 15.8523 10.9231 15.8271ZM11.8295 19.6933V15.8271C12.946 15.8523 14.0324 15.9689 15.0799 16.1678C14.2909 18.1397 13.0523 19.4266 11.8295 19.6933ZM11.8295 15.1128V11.8848H15.9095C15.8759 13.2143 15.666 14.4271 15.3278 15.4801C14.2006 15.2636 13.0319 15.138 11.8295 15.1128ZM16.8215 11.8848H21.7913C21.6913 13.7226 20.8236 15.4061 19.4335 16.7397C18.4161 16.2984 17.3359 15.9368 16.2044 15.6672C16.57 14.5284 16.7887 13.2457 16.8215 11.8848ZM16.8215 11.1698C16.7887 9.80689 16.5691 8.52352 16.2035 7.38397C17.3342 7.11444 18.4144 6.75346 19.4309 6.31219C20.8227 7.64581 21.6913 9.33069 21.7913 11.1698H16.8215ZM18.8066 5.76614C17.9044 6.14456 16.9525 6.45738 15.9582 6.69481C15.4279 5.34999 14.6841 4.25236 13.804 3.53176C15.7342 3.89698 17.4581 4.68456 18.8066 5.76614ZM8.91275 3.53876C8.0375 4.25796 7.29688 5.35071 6.76872 6.68853C5.78409 6.45181 4.84025 6.1418 3.94647 5.76614C5.28602 4.69156 6.99671 3.90603 8.91275 3.53876ZM3.94333 17.2857C4.83802 16.9094 5.78232 16.5994 6.76781 16.3627C7.29597 17.7019 8.03659 18.796 8.91271 19.5159C6.99539 19.148 5.28384 18.3617 3.94333 17.2857ZM13.804 19.5222C14.685 18.8016 15.4287 17.7033 15.9591 16.3564C16.9543 16.5945 17.907 16.9066 18.8093 17.2864C17.4608 18.3687 15.736 19.1577 13.804 19.5222Z" fill="white"/>
</g>
<defs>
<clipPath id="clip0_1_301">
<rect width="27.8972" height="22" fill="white" transform="translate(0.0430527 0.527344)"/>
</clipPath>
</defs>
</svg>
