<svg width="56" height="45" viewBox="0 0 56 45" fill="none" xmlns="http://www.w3.org/2000/svg">
<g opacity="0.4">
<rect width="54.3466" height="44.2507" transform="translate(0.971619)" fill="white"/>
<path d="M47.353 11.8313L34.6156 8.62313C33.8341 8.43012 32.9906 8.49617 32.2686 8.80693C31.5466 9.1177 31.0046 9.64802 30.7603 10.2825L30.2848 11.5271H14.7791C14.3753 11.527 13.9755 11.5916 13.6025 11.7174C13.2295 11.8431 12.8906 12.0275 12.6051 12.2599C12.3196 12.4924 12.0932 12.7683 11.9388 13.0721C11.7844 13.3758 11.7049 13.7013 11.7051 14.03V35.4086C11.7042 36.074 12.0272 36.7124 12.6034 37.1842C13.1796 37.6559 13.9619 37.9225 14.7791 37.9254H21.1987C21.3803 38.2289 21.637 38.4986 21.9526 38.7175C22.2682 38.9365 22.636 39.0999 23.0329 39.1976L36.0931 42.4749C36.3894 42.5522 36.6991 42.5896 37.0102 42.5856C37.5187 42.5862 38.0199 42.4866 38.4708 42.2952C38.8304 42.1374 39.1478 41.9229 39.4045 41.6641C39.6611 41.4053 39.8517 41.1074 39.9653 40.7879L42.6147 33.5556V33.528L49.408 14.9427C49.6359 14.3083 49.5482 13.6263 49.1637 13.0441C48.7791 12.4619 48.1288 12.0263 47.353 11.8313ZM14.7791 36.9712C14.527 36.9715 14.2773 36.9312 14.0444 36.8528C13.8114 36.7743 13.5998 36.6592 13.4215 36.5141C13.2432 36.369 13.1019 36.1966 13.0055 36.007C12.9092 35.8173 12.8597 35.614 12.8599 35.4088V14.0302C12.8623 13.6163 13.0653 13.22 13.4246 12.9274C13.784 12.6347 14.2708 12.4695 14.7791 12.4676H33.0701C33.5749 12.4674 34.0597 12.6278 34.4214 12.9145C34.7831 13.2012 34.9929 13.5916 35.0062 14.0025L35.0911 17.9989L35.1081 18.9945L35.142 20.5571L35.21 24.0834L35.227 25.2726L35.2439 26.2129L35.3628 31.7166V31.8272L35.4308 35.3811C35.4359 35.5899 35.3895 35.7975 35.2942 35.9914C35.199 36.1853 35.0568 36.3617 34.8762 36.51C34.6956 36.6584 34.4803 36.7756 34.243 36.8549C34.0056 36.9341 33.7512 36.9738 33.4947 36.9714L14.7791 36.9712ZM38.8614 40.5251C38.7057 40.927 38.3648 41.264 37.9103 41.4655C37.633 41.5847 37.3238 41.6465 37.0102 41.6452C36.8205 41.6425 36.632 41.6192 36.4498 41.5761L23.3726 38.2988C23.0842 38.2271 22.8218 38.0989 22.6084 37.9254H33.4947C33.9061 37.9237 34.3131 37.8557 34.6921 37.7251C35.0711 37.5946 35.4145 37.4041 35.7025 37.1648C35.9893 36.9282 36.2152 36.6473 36.3669 36.3386C36.5185 36.0299 36.5929 35.6996 36.5856 35.3672L36.5347 32.4217L41.3409 33.7078L38.8614 40.5251ZM38.9463 18.704L43.362 23.5301L43.2091 24.0141L38.7425 21.124C38.666 21.0768 38.5771 21.0448 38.4828 21.0304C38.3885 21.016 38.2913 21.0196 38.199 21.041C38.1102 21.0699 38.0305 21.1148 37.9658 21.1723C37.9011 21.2297 37.8531 21.2983 37.8254 21.3729L36.9253 24.0556C36.8857 24.1658 36.8978 24.2841 36.9593 24.3874L38.1481 26.4617L38.0971 26.5585L36.3988 25.5905L36.3139 21.4835L36.4498 21.0686C36.4781 20.9928 36.482 20.9122 36.4612 20.8348C36.4404 20.7573 36.3955 20.6855 36.3309 20.6261L36.2969 20.5985L36.246 18.6072L37.1461 18.303C37.2275 18.2768 37.3005 18.2358 37.3593 18.183C37.4182 18.1303 37.4615 18.0672 37.4857 17.9988L38.3179 15.5373C38.6236 14.597 39.201 14.3896 39.4558 14.3342C39.6426 14.4864 39.9993 14.9012 39.6936 15.8415L38.8614 18.303C38.8366 18.3706 38.8313 18.442 38.846 18.5116C38.8608 18.5812 38.8951 18.647 38.9463 18.704ZM48.2871 14.6661L41.6806 32.7951L36.5007 31.4399L36.4158 26.7383L38.1141 27.7201C38.2148 27.7745 38.333 27.8033 38.4538 27.8031C38.5179 27.8062 38.582 27.7968 38.6406 27.7754C38.7279 27.7508 38.8062 27.7088 38.8685 27.6532C38.9308 27.5977 38.975 27.5303 38.9972 27.4573L39.3199 26.5447C39.3511 26.4338 39.3392 26.3179 39.286 26.2128L38.0971 24.1385L38.7085 22.3132L43.1751 25.1895C43.2517 25.2366 43.3406 25.2686 43.4349 25.283C43.5292 25.2974 43.6263 25.2938 43.7186 25.2725C43.8081 25.2485 43.8891 25.2069 43.9542 25.1514C44.0194 25.096 44.0668 25.0283 44.0922 24.9544L44.5508 23.5578C44.5756 23.4901 44.5809 23.4187 44.5662 23.3491C44.5514 23.2795 44.5171 23.2137 44.4659 23.1567L40.0502 18.3306L40.7975 16.0904C41.4768 14.0992 39.9313 13.4492 39.8634 13.4354C39.8026 13.4028 39.7323 13.3837 39.6596 13.3801C39.5747 13.3801 37.8764 13.2833 37.197 15.2884L36.4498 17.5286L36.229 17.5977L36.161 13.9885C36.1411 13.3313 35.807 12.7062 35.2297 12.2465C34.6524 11.7868 33.8776 11.5287 33.0701 11.5271H31.4906L31.8643 10.5591C31.9393 10.361 32.0621 10.177 32.2254 10.018C32.3886 9.8589 32.5892 9.7279 32.8153 9.6326C33.0941 9.51656 33.4023 9.45501 33.7154 9.45284C33.9052 9.45563 34.0936 9.47888 34.2759 9.52198L47.0134 12.7302C47.4964 12.8508 47.9014 13.122 48.14 13.4846C48.3785 13.8473 48.4314 14.2719 48.2871 14.6661Z" fill="#19BA18"/>
<path d="M33.4947 33.431C33.5707 33.4316 33.6461 33.4198 33.7164 33.3963C33.7868 33.3729 33.8507 33.3383 33.9044 33.2945C33.9582 33.2508 34.0007 33.1987 34.0295 33.1414C34.0583 33.0842 34.0727 33.0228 34.0721 32.9609C34.0705 32.8366 34.0092 32.7177 33.9013 32.6298C33.7933 32.5419 33.6473 32.492 33.4947 32.4907H14.7791C14.6264 32.492 14.4805 32.542 14.3725 32.6299C14.2646 32.7178 14.2032 32.8366 14.2016 32.9609C14.201 33.0228 14.2155 33.0842 14.2442 33.1414C14.273 33.1987 14.3155 33.2508 14.3693 33.2945C14.423 33.3383 14.487 33.3729 14.5573 33.3963C14.6277 33.4198 14.703 33.4316 14.7791 33.431H33.4947Z" fill="#19BA18"/>
<path d="M16.834 25.9776C17.5434 26.9302 18.5258 27.7285 19.6972 28.3041C20.8685 28.8797 22.1938 29.2155 23.5594 29.2826C23.655 29.2941 23.7516 29.2987 23.8481 29.2964C23.893 29.3034 23.9391 29.3034 23.984 29.2964C24.0337 29.3079 24.0853 29.3125 24.1369 29.3103C24.2388 29.3103 24.3576 29.2964 24.4595 29.2964C24.5617 29.2988 24.664 29.2941 24.7652 29.2826C26.1216 29.2076 27.436 28.8682 28.5976 28.2931C29.7592 27.7179 30.7339 26.9238 31.4397 25.9776C31.4829 25.947 31.5176 25.9093 31.5416 25.867C31.5416 25.8532 31.5586 25.8532 31.5586 25.8394C31.6095 25.7702 31.6435 25.7149 31.6944 25.6458C31.6944 25.6319 31.7114 25.6319 31.7114 25.6181C31.927 25.2898 32.1088 24.9476 32.2549 24.5948C32.5692 23.8613 32.7299 23.09 32.7304 22.3131C32.7304 22.1334 32.7134 21.9536 32.6964 21.7738C32.6718 21.4625 32.6208 21.1529 32.5436 20.8473C32.4618 20.551 32.354 20.2599 32.2209 19.9761C32.0984 19.6824 31.9508 19.3959 31.7793 19.1188C31.7045 18.9944 31.6194 18.8743 31.5246 18.7593V18.7454C31.5004 18.7109 31.4719 18.6785 31.4397 18.6486C30.9252 17.9556 30.2639 17.3423 29.4866 16.8371C29.1731 16.6292 28.8378 16.4441 28.4846 16.284C26.5274 15.3437 24.1916 15.0747 21.9909 15.5363C19.7903 15.9979 17.9048 17.1522 16.7491 18.7454V18.7593C15.96 19.8333 15.5433 21.0615 15.5433 22.3131C15.5433 23.5647 15.96 24.7929 16.7491 25.867C16.7671 25.9085 16.7961 25.9463 16.834 25.9776ZM17.5134 19.589C18.1976 19.8348 18.9162 20.0112 19.6533 20.1144C19.5083 20.8414 19.4344 21.5766 19.4325 22.3131C19.4337 23.0451 19.5075 23.7757 19.6533 24.498C18.9207 24.6161 18.204 24.7921 17.5134 25.0235C16.9886 24.1814 16.7151 23.2505 16.7151 22.3062C16.7151 21.362 16.9886 20.431 17.5134 19.589ZM20.5873 22.3131C20.5812 21.6314 20.6551 20.9507 20.8081 20.2804C21.7191 20.3917 22.6383 20.4518 23.5594 20.4601V24.1661C22.6384 24.1762 21.7193 24.2362 20.8081 24.3459C20.6551 23.6755 20.5812 22.9949 20.5873 22.3131ZM27.4826 20.2804C27.586 20.7188 27.6541 21.1622 27.6864 21.6079C27.6864 21.843 27.7033 22.0781 27.7033 22.3131C27.7096 22.9903 27.6356 23.6664 27.4826 24.3321C27.2278 24.3044 26.9561 24.2768 26.6844 24.2491C26.2937 24.2214 25.9031 24.1938 25.4955 24.18C25.2408 24.1661 24.969 24.1661 24.7143 24.1661V20.4601C25.4785 20.4463 26.2428 20.4048 26.9561 20.3357C27.1327 20.3249 27.3084 20.3065 27.4826 20.2804ZM23.5594 25.1065V28.2732C22.8913 27.9562 22.3197 27.5205 21.8874 26.9985C21.4551 26.4765 21.1733 25.8817 21.0629 25.2586C21.8901 25.164 22.7241 25.1132 23.5594 25.1065ZM25.2238 28.0657C25.065 28.1553 24.8941 28.2295 24.7143 28.287V25.1065H25.1389C25.5465 25.1203 25.9371 25.1479 26.3277 25.1756C26.6334 25.2033 26.9391 25.2309 27.2278 25.2586C26.9689 26.3519 26.2625 27.3415 25.2238 28.0657ZM24.7143 19.506V16.3393C25.3853 16.6583 25.9596 17.0962 26.3947 17.6204C26.8298 18.1446 27.1145 18.7418 27.2278 19.3677C26.3944 19.457 25.5549 19.5031 24.7143 19.506ZM23.5594 16.3531V19.506C22.7245 19.5036 21.8905 19.4574 21.0629 19.3677C21.1734 18.7445 21.4553 18.1498 21.8876 17.6277C22.3198 17.1057 22.8913 16.6702 23.5594 16.3531ZM18.1078 25.8394C18.6926 25.6569 19.2946 25.5135 19.908 25.4107C20.1768 26.3059 20.6429 27.154 21.2837 27.9136C20.0112 27.4727 18.9124 26.7552 18.1078 25.8394ZM27.024 27.8998C27.6491 27.1448 28.1088 26.3073 28.3827 25.4245C28.9913 25.5186 29.5882 25.6574 30.1659 25.8394C29.3727 26.7494 28.2851 27.4627 27.024 27.8998ZM31.3887 20.9718C31.4796 21.2805 31.5365 21.5952 31.5586 21.9121C31.5728 22.0455 31.5784 22.1793 31.5755 22.3131C31.5754 23.2552 31.3019 24.1839 30.7773 25.0235C30.0875 24.7902 29.3706 24.6141 28.6374 24.498C28.7833 23.7758 28.8571 23.0451 28.8582 22.3131C28.8582 22.161 28.8582 22.0089 28.8412 21.8568V21.5249C28.7903 21.0408 28.7223 20.5707 28.6374 20.1144C28.9092 20.0729 29.1639 20.0315 29.4187 19.9761C29.4232 19.9761 29.4275 19.9747 29.4307 19.9721C29.4339 19.9695 29.4356 19.966 29.4356 19.9623C29.8974 19.8757 30.347 19.7506 30.7773 19.589C30.9321 19.8336 31.0627 20.088 31.1679 20.3495C31.2616 20.5518 31.3354 20.76 31.3887 20.9718ZM28.1279 17.2105C28.4773 17.3897 28.8068 17.5933 29.113 17.8189C29.5078 18.1081 29.861 18.4329 30.1659 18.7869C29.6616 18.9533 29.1382 19.0784 28.6035 19.1603C28.5355 19.1741 28.4506 19.1879 28.3827 19.2018C28.2431 18.7729 28.0672 18.3524 27.8562 17.9434C27.628 17.5211 27.3493 17.1181 27.024 16.7403C27.4105 16.8663 27.7804 17.0239 28.1279 17.2105ZM21.2837 16.7265C20.6449 17.4753 20.1841 18.3148 19.925 19.2018C19.3109 19.1076 18.7084 18.9687 18.1248 18.7869C18.9149 17.8688 20.0109 17.1541 21.2837 16.7265Z" fill="#19BA18"/>
</g>
</svg>
