<svg width="85" height="31" viewBox="0 0 85 31" fill="none" xmlns="http://www.w3.org/2000/svg">
<rect x="0.0895996" width="84.0557" height="31" rx="5" fill="#E6F8FF" fill-opacity="0.3"/>
<path d="M58.6729 23.9375C58.55 23.9381 58.4283 23.9169 58.3146 23.8749C58.2009 23.8329 58.0975 23.771 58.0103 23.6928L49.6116 16.0991C49.5242 16.0206 49.4547 15.9273 49.4074 15.8245C49.36 15.7217 49.3356 15.6114 49.3356 15.5C49.3356 15.3886 49.36 15.2783 49.4074 15.1755C49.4547 15.0727 49.5242 14.9794 49.6116 14.9009L58.0103 7.30719C58.0973 7.22852 58.2006 7.16612 58.3143 7.12354C58.428 7.08097 58.5498 7.05905 58.6729 7.05905C58.7959 7.05905 58.9177 7.08097 59.0314 7.12354C59.1451 7.16612 59.2484 7.22852 59.3354 7.30719C59.4224 7.38586 59.4914 7.47926 59.5385 7.58204C59.5856 7.68483 59.6099 7.795 59.6099 7.90625C59.6099 8.01751 59.5856 8.12768 59.5385 8.23046C59.4914 8.33325 59.4224 8.42665 59.3354 8.50532L51.59 15.5L59.3354 22.4947C59.4229 22.5731 59.4923 22.6664 59.5397 22.7693C59.5871 22.8721 59.6115 22.9824 59.6115 23.0938C59.6115 23.2051 59.5871 23.3154 59.5397 23.4182C59.4923 23.5211 59.4229 23.6144 59.3354 23.6928C59.2482 23.771 59.1448 23.8329 59.0311 23.8749C58.9174 23.9169 58.7957 23.9381 58.6729 23.9375Z" fill="black"/>
<path d="M72.6706 16.3438H50.2742C50.0267 16.3438 49.7893 16.2549 49.6143 16.0966C49.4393 15.9384 49.341 15.7238 49.341 15.5C49.341 15.2762 49.4393 15.0616 49.6143 14.9034C49.7893 14.7451 50.0267 14.6562 50.2742 14.6562H72.6706C72.9181 14.6562 73.1555 14.7451 73.3305 14.9034C73.5055 15.0616 73.6038 15.2762 73.6038 15.5C73.6038 15.7238 73.5055 15.9384 73.3305 16.0966C73.1555 16.2549 72.9181 16.3438 72.6706 16.3438Z" fill="black"/>
<path d="M25.5621 23.9375C25.4393 23.9381 25.3176 23.9169 25.2039 23.8749C25.0902 23.8329 24.9868 23.771 24.8996 23.6928C24.8121 23.6144 24.7427 23.5211 24.6953 23.4182C24.6479 23.3154 24.6235 23.2051 24.6235 23.0938C24.6235 22.9824 24.6479 22.8721 24.6953 22.7693C24.7427 22.6664 24.8121 22.5731 24.8996 22.4947L32.645 15.5L24.8996 8.50532C24.7238 8.34644 24.6251 8.13095 24.6251 7.90625C24.6251 7.68156 24.7238 7.46607 24.8996 7.30719C25.0753 7.14831 25.3136 7.05905 25.5621 7.05905C25.8106 7.05905 26.049 7.14831 26.2247 7.30719L34.6233 14.9009C34.7108 14.9794 34.7802 15.0727 34.8276 15.1755C34.875 15.2783 34.8994 15.3886 34.8994 15.5C34.8994 15.6114 34.875 15.7217 34.8276 15.8245C34.7802 15.9273 34.7108 16.0206 34.6233 16.0991L26.2247 23.6928C26.1375 23.771 26.0341 23.8329 25.9204 23.8749C25.8067 23.9169 25.6849 23.9381 25.5621 23.9375Z" fill="black"/>
<path d="M33.9608 16.3438H11.5643C11.3169 16.3438 11.0795 16.2549 10.9045 16.0966C10.7295 15.9384 10.6312 15.7238 10.6312 15.5C10.6312 15.2762 10.7295 15.0616 10.9045 14.9034C11.0795 14.7451 11.3169 14.6562 11.5643 14.6562H33.9608C34.2083 14.6562 34.4456 14.7451 34.6206 14.9034C34.7956 15.0616 34.894 15.2762 34.894 15.5C34.894 15.7238 34.7956 15.9384 34.6206 16.0966C34.4456 16.2549 34.2083 16.3438 33.9608 16.3438Z" fill="black"/>
</svg>
