<svg width="43" height="42" viewBox="0 0 43 42" fill="none" xmlns="http://www.w3.org/2000/svg">
<path d="M27.9811 7.97535C30.6409 7.97535 32.7971 6.19001 32.7971 3.98768C32.7971 1.78534 30.6409 0 27.9811 0C25.3214 0 23.1652 1.78534 23.1652 3.98768C23.1652 6.19001 25.3214 7.97535 27.9811 7.97535Z" fill="#4AB449" fill-opacity="0.5"/>
<path d="M39.1118 15.3256L31.9464 10.3696H24.6534L18.7318 16.7077L12.7252 17.2358L11.981 17.3062L11.2475 17.3679L10.684 17.4207L11.088 19.3485L11.2475 19.3749L11.981 19.4893L12.7252 19.6038L20.5391 20.8186L25.0042 16.7781L24.3238 24.1724L20.3265 41.6989H23.3776L28.9696 27.0422L34.4979 41.6989H37.3364L34.147 24.3397L33.254 16.6812L37.4427 18.7323L37.7085 24.3221L40.4938 24.3397L42.0885 18.8732L42.45 17.632L39.1118 15.3256Z" fill="#4AB449" fill-opacity="0.5"/>
<path d="M11.0567 27.8433H4.5185V37.7464H11.0567V27.8433Z" fill="#4AB449" fill-opacity="0.5"/>
<path d="M12.9912 21.7693H12.7254V20.8538L11.237 20.6249V21.7693H4.32676V13.3186H5.65566V13.5563C5.65566 13.9084 6.00649 14.1989 6.43174 14.1989H9.12143C9.54667 14.1989 9.8975 13.9084 9.8975 13.5563V13.3186H11.2264V16.1267L11.8111 16.0739L12.7148 15.9947V12.7024C12.7148 12.3591 12.3852 12.0862 11.9706 12.0862H9.8975V11.8485C9.8975 11.4876 9.54667 11.2059 9.12143 11.2059H6.43174C6.00649 11.2059 5.65566 11.4964 5.65566 11.8485V12.0862H3.58258C3.16796 12.0862 2.8384 12.3591 2.8384 12.7024V21.7693H2.57262C1.25435 21.7693 0.180603 22.6584 0.180603 23.7499V35.7658C0.180603 36.8573 1.25435 37.7464 2.57262 37.7464H3.02976V27.2271C3.02976 26.8837 3.35933 26.6109 3.77394 26.6109H11.8005C12.2151 26.6109 12.5447 26.8837 12.5447 27.2271V37.7464H13.0018C14.3201 37.7464 15.3938 36.8573 15.3938 35.7658V23.7499C15.3832 22.6584 14.3094 21.7693 12.9912 21.7693Z" fill="#4AB449" fill-opacity="0.5"/>
<path d="M3.77397 41.6989C4.54313 41.6989 5.16666 41.1826 5.16666 40.5457C5.16666 39.9089 4.54313 39.3926 3.77397 39.3926C3.00481 39.3926 2.38129 39.9089 2.38129 40.5457C2.38129 41.1826 3.00481 41.6989 3.77397 41.6989Z" fill="#4AB449" fill-opacity="0.5"/>
<path d="M11.8007 41.6989C12.5698 41.6989 13.1933 41.1826 13.1933 40.5457C13.1933 39.9089 12.5698 39.3926 11.8007 39.3926C11.0315 39.3926 10.408 39.9089 10.408 40.5457C10.408 41.1826 11.0315 41.6989 11.8007 41.6989Z" fill="#4AB449" fill-opacity="0.5"/>
</svg>
