<svg width="27" height="13" viewBox="0 0 27 13" fill="none" xmlns="http://www.w3.org/2000/svg">
<path d="M25.8714 1.77164L24.8654 1.09839L15.5469 7.33483C14.3821 8.11438 12.4231 8.11438 11.2583 7.33483L1.93981 1.13383L0.933838 1.80707L7.86976 6.44897L0.933838 11.0909L1.93981 11.7641L8.87573 7.12222L10.2523 8.04351C11.0995 8.61046 12.2113 8.92937 13.3761 8.92937C14.5409 8.92937 15.6528 8.61046 16.4999 8.04351L17.8765 7.12222L24.8125 11.7641L25.8184 11.0909L18.8825 6.44897L25.8714 1.77164Z" fill="white"/>
<path d="M23.9124 12.969H2.99873C1.78098 12.969 0.775002 12.2957 0.775002 11.4807V1.48824C0.775002 0.673251 1.78098 0 2.99873 0H23.9124C25.1301 0 26.1361 0.673251 26.1361 1.48824V11.4807C26.1361 12.2957 25.1301 12.969 23.9124 12.969ZM2.94578 0.956725C2.52222 0.956725 2.20454 1.16933 2.20454 1.4528V11.4453C2.20454 11.7288 2.52222 11.9414 2.94578 11.9414H23.8594C24.283 11.9414 24.6007 11.7288 24.6007 11.4453V1.4528C24.6007 1.16933 24.283 0.956725 23.8594 0.956725H2.94578Z" fill="white"/>
</svg>
