<svg width="49" height="41" viewBox="0 0 49 41" fill="none" xmlns="http://www.w3.org/2000/svg">
<path fill-rule="evenodd" clip-rule="evenodd" d="M47.669 5.16483L24.2563 9.68402L0.910889 5.16483L24.1608 0.64563L47.669 5.16483Z" fill="#092E3D"/>
<path fill-rule="evenodd" clip-rule="evenodd" d="M38.7451 6.88045L24.1612 9.68406L9.76849 6.88646L24.1612 4.08887L38.7451 6.88045Z" fill="#4AB449"/>
<path fill-rule="evenodd" clip-rule="evenodd" d="M24.1608 9.68411L47.669 5.16492V35.2929L24.1608 39.8121L0.910889 35.2929V5.16492L24.1608 9.68411Z" fill="#092E3D"/>
<path fill-rule="evenodd" clip-rule="evenodd" d="M24.1608 16.1341L47.669 11.6149V15.0581L24.1608 19.5773L0.910889 15.0581V11.6149L24.1608 16.1341Z" fill="#F2AF0D"/>
<path fill-rule="evenodd" clip-rule="evenodd" d="M6.07753 17.7896L0.910889 16.7855V18.9375L6.07753 19.9416V17.7896Z" fill="#F2AF0D"/>
<path fill-rule="evenodd" clip-rule="evenodd" d="M42.5025 17.7896L47.6691 16.7855V18.9375L42.5025 19.9416V17.7896Z" fill="#F2AF0D"/>
<path fill-rule="evenodd" clip-rule="evenodd" d="M15.1192 19.5475L9.95251 18.543V20.695L15.1192 21.6995V19.5475Z" fill="#F2AF0D"/>
<path fill-rule="evenodd" clip-rule="evenodd" d="M33.4605 19.5475L38.6271 18.543V20.695L33.4605 21.6995V19.5475Z" fill="#F2AF0D"/>
<path fill-rule="evenodd" clip-rule="evenodd" d="M24.1607 21.3048L29.5857 20.3007V22.4527L24.1607 23.4568L18.9941 22.4527V20.3007L24.1607 21.3048Z" fill="#F2AF0D"/>
<path fill-rule="evenodd" clip-rule="evenodd" d="M0.734678 4.53603C0.461879 4.62039 0.135864 4.90273 0.135864 5.16484V35.2928C0.135864 35.5928 0.383863 35.8532 0.734678 35.9216L23.9846 40.4408C24.107 40.4645 24.2295 40.4628 24.3436 40.4395L47.8431 35.922C48.1949 35.8545 48.4439 35.5932 48.4439 35.2928V5.16484C48.4439 4.96772 48.3039 4.59284 47.8446 4.53603L24.3349 0.0164144C24.2196 -0.005536 24.0998 -0.00554608 23.9846 0.0168347L0.734678 4.53603ZM46.8939 16.2735V15.8715L24.3457 20.2542C24.2305 20.2779 24.1065 20.2801 23.983 20.2555L1.68586 15.8736V16.2735L6.25368 17.1614C6.6045 17.2294 6.8525 17.4898 6.8525 17.7898V19.9418C6.8525 20.1389 6.74451 20.3252 6.55903 20.4475C6.37406 20.5701 6.13175 20.6153 5.90132 20.5706L1.68586 19.7511V34.7806L24.1618 39.1492L46.8939 34.7793V19.7511L42.6785 20.5706C42.4481 20.6153 42.2057 20.5701 42.0208 20.4475C41.8353 20.3252 41.7273 20.1389 41.7273 19.9418V17.7898C41.7273 17.4898 41.9753 17.2294 42.3261 17.1614L46.8939 16.2735ZM24.339 24.0852L29.7536 23.0828C30.1086 23.0169 30.3607 22.7553 30.3607 22.4527V20.3007C30.3607 20.1049 30.2538 19.9194 30.0709 19.7971C29.8874 19.6745 29.6472 19.628 29.4178 19.6702L24.1649 20.6429L19.1703 19.6719C18.9398 19.6271 18.6975 19.6723 18.5126 19.795C18.3271 19.9172 18.2191 20.1036 18.2191 20.3007V22.4527C18.2191 22.7527 18.4671 23.0131 18.8179 23.0811L23.9846 24.0856C24.1055 24.1089 24.2258 24.1076 24.339 24.0852ZM24.339 21.9332C24.2258 21.9556 24.1055 21.9569 23.9846 21.9336L19.7691 21.1142V21.9401L24.1649 22.7949L28.8107 21.9345V21.1055L24.339 21.9332ZM33.2845 18.9187C32.9337 18.9867 32.6857 19.2475 32.6857 19.5475V21.6995C32.6857 21.8962 32.7937 22.0826 32.9792 22.2052C33.1641 22.3274 33.4064 22.3727 33.6369 22.3279L38.8035 21.3238C39.1543 21.2558 39.4023 20.9949 39.4023 20.695V18.543C39.4023 18.3463 39.2943 18.1599 39.1089 18.0372C38.9239 17.915 38.6816 17.8698 38.4511 17.9146L33.2845 18.9187ZM15.8941 19.5475C15.8941 19.2475 15.6461 18.9867 15.2953 18.9187L10.1287 17.9146C9.89823 17.8698 9.65591 17.915 9.47095 18.0372C9.28547 18.1599 9.17748 18.3463 9.17748 18.543V20.695C9.17748 20.9949 9.42548 21.2558 9.77629 21.3238L14.9429 22.3279C15.1734 22.3727 15.4157 22.3274 15.6006 22.2052C15.7861 22.0826 15.8941 21.8962 15.8941 21.6995V19.5475ZM34.2357 20.0597L37.8523 19.3568V20.1828L34.2357 20.8856V20.0597ZM14.3441 20.0597V20.8856L10.7275 20.1828V19.3568L14.3441 20.0597ZM46.8939 17.5991V18.4255L43.2773 19.1283V18.3024L46.8939 17.5991ZM1.68586 18.4255V17.5991L5.3025 18.3024V19.1283L1.68586 18.4255ZM24.3457 16.811C24.2305 16.8347 24.1065 16.8369 23.983 16.8123L1.68586 12.4304V14.5467L24.1618 18.9643L46.8939 14.5454V12.4283L24.3457 16.811ZM46.8939 11.1022V5.9783L24.3369 10.3628C24.2129 10.3869 24.0894 10.3847 23.9737 10.3606L1.68586 5.98046V11.1035L24.1618 15.5211L46.8939 11.1022ZM13.1119 6.89937L24.1618 9.07114L35.3346 6.89937L24.1618 4.75165L13.1119 6.89937ZM4.30379 5.16828L9.71998 6.23267L23.9846 3.46003C24.0998 3.43765 24.2196 3.43766 24.3349 3.45961L38.7622 6.23309L44.2404 5.16828L24.1618 1.30845L4.30379 5.16828Z" fill="#092E3D"/>
</svg>
