<svg width="49" height="40" viewBox="0 0 49 40" fill="none" xmlns="http://www.w3.org/2000/svg">
<path d="M7.72624 15H10.7455V12.5H7.72624V15ZM19.8033 12.5H22.8225V10H19.8033V12.5ZM25.8418 12.5H28.861V10H25.8418V12.5ZM31.8803 12.5H34.8995V10H31.8803V12.5ZM19.8033 7.5H22.8225V5H19.8033V7.5ZM25.8418 7.5H28.861V5H25.8418V7.5ZM31.8803 7.5H34.8995V5H31.8803V7.5ZM19.8033 22.5H22.8225V20H19.8033V22.5ZM25.8418 22.5H28.861V20H25.8418V22.5ZM31.8803 22.5H34.8995V20H31.8803V22.5ZM19.8033 27.5H22.8225V25H19.8033V27.5ZM31.8803 27.5H34.8995V25H31.8803V27.5ZM19.8033 32.5H22.8225V30H19.8033V32.5ZM31.8803 32.5H34.8995V30H31.8803V32.5ZM40.938 30H43.9573V27.5H40.938V30ZM40.938 22.5V25H43.9573V22.5H40.938ZM40.938 35H43.9573V32.5H40.938V35ZM19.8033 17.5H22.8225V15H19.8033V17.5ZM25.8418 17.5H28.861V15H25.8418V17.5ZM31.8803 17.5H34.8995V15H31.8803V17.5ZM7.72624 20H10.7455V17.5H7.72624V20ZM7.72624 25H10.7455V22.5H7.72624V25ZM7.72624 30H10.7455V27.5H7.72624V30ZM7.72624 35H10.7455V32.5H7.72624V35ZM25.8418 27.5H28.861V25H25.8418V27.5Z" fill="#4AB449" fill-opacity="0.5"/>
<path fill-rule="evenodd" clip-rule="evenodd" d="M46.9765 37.5C46.9765 38.8819 45.6262 40 43.9573 40H4.70698C3.03809 40 1.68773 38.8819 1.68773 37.5V10C1.68773 8.61813 3.03809 7.5 4.70698 7.5H13.7647V2.5C13.7647 1.11813 15.1151 0 16.784 0H37.9188C39.5877 0 40.938 1.11813 40.938 2.5V17.5H43.9573C45.6262 17.5 46.9765 18.6181 46.9765 20V37.5ZM13.7647 10H4.70698V37.5H13.7647V10ZM37.9188 2.5H16.784V37.5H25.8418V30H28.861V37.5H37.9188V2.5ZM43.9573 20H40.938V37.5H43.9573V20Z" fill="#4AB449" fill-opacity="0.5"/>
</svg>
