<svg width="49" height="40" viewBox="0 0 49 40" fill="none" xmlns="http://www.w3.org/2000/svg">
<path d="M45.8919 2.02643C44.1129 0.575687 40.9908 0.915251 39.2026 2.37304L30.1084 9.76064L13.2371 4.62843C11.623 4.28666 9.99654 3.84668 7.9925 5.48461C6.97127 6.317 4.84553 8.05181 7.9925 10.6195L19.5586 18.3321L12.0325 24.4469L5.01212 23.0177C3.96656 22.7988 3.26717 22.9693 2.7333 23.4493C2.46393 23.7242 0.508572 24.9049 1.87002 26.0161L11.0091 30.3952L16.3889 37.837C17.3755 38.6407 18.2945 38.1391 19.5462 37.1697C20.3402 36.521 20.1677 36.188 19.9291 35.2429L18.3427 29.5654L25.8174 23.4608L35.2729 32.8787C38.422 35.4455 40.5472 33.712 41.5712 32.8787C43.5741 31.2421 43.0359 29.9151 42.6184 28.5987L36.365 14.8391L45.4251 7.43831C47.2122 5.98008 47.6704 3.47673 45.8919 2.02643Z" fill="#E0F1F8"/>
<path d="M29.9459 9.7605L25.5159 8.73608L16.0652 16.0611L19.3956 18.3315L29.9459 9.7605Z" fill="#4AB449" fill-opacity="0.5"/>
<path d="M36.2029 14.8402L37.8689 18.2799L28.4869 25.5525L25.6537 23.4605L36.2029 14.8402Z" fill="#4AB449" fill-opacity="0.5"/>
<path d="M17.5111 39.3321C16.7923 39.3321 16.1302 39.089 15.5433 38.6112C15.4633 38.5455 15.3935 38.472 15.3356 38.3923L10.1327 31.1945L1.29325 26.9594C1.19481 26.9123 1.10394 26.8555 1.02334 26.7894C0.297454 26.1966 0.149787 25.5743 0.153574 25.1563C0.163851 24.05 1.19752 23.2313 1.6946 22.8371C1.74329 22.7983 1.78494 22.7666 1.81468 22.7406C2.75261 21.8955 3.94368 21.6422 5.45117 21.9576L11.7262 23.2348L17.6626 18.4113L7.24534 11.4659C7.21073 11.4425 7.17719 11.4179 7.14582 11.3919C4.42778 9.17394 4.42778 6.9256 7.14636 4.71073C8.3807 3.70173 9.69185 3.2111 11.1528 3.2111C12.0085 3.2111 12.7896 3.37846 13.4792 3.526L13.6805 3.56916C13.7254 3.57841 13.7692 3.58986 13.8124 3.60307L29.8751 8.48953L38.358 1.59872C39.5859 0.59809 41.3525 0 43.0834 0C44.5833 0 45.9566 0.444824 46.9476 1.25343C49.36 3.21947 48.6541 6.4385 46.4813 8.21119L38.0286 15.1156L43.9834 28.219C43.9991 28.2538 44.0132 28.289 44.024 28.3256L44.0775 28.4912C44.5038 29.8208 45.0879 31.6406 42.6279 33.6512C41.9074 34.2378 40.5741 35.3221 38.596 35.3221C37.1897 35.3221 35.7871 34.7606 34.4268 33.652C34.3954 33.6265 34.3656 33.5996 34.337 33.571L25.8232 25.0916L19.9225 29.912L21.4051 35.2358C21.6323 36.1061 21.847 36.9279 20.6029 37.9435C19.6823 38.6565 18.7092 39.3321 17.5111 39.3321ZM2.84294 25.1625L11.796 29.4526C11.9928 29.5469 12.1567 29.6803 12.2725 29.8406L17.5447 37.134C17.6858 37.093 18.0077 36.9336 18.726 36.3778C18.865 36.2637 18.9002 36.2056 18.9012 36.2034C18.8985 36.1598 18.8309 35.8999 18.7763 35.6912L18.7179 35.4652L17.1379 29.8098C17.0357 29.4434 17.1709 29.0602 17.4965 28.7942L24.9707 22.6887C25.2385 22.4693 25.6041 22.3517 25.9887 22.368C26.3679 22.383 26.7222 22.5284 26.9634 22.7684L36.3746 32.1423C37.194 32.8003 37.941 33.1337 38.596 33.1337C39.462 33.1337 40.1906 32.54 40.7229 32.1066C42.0989 30.9827 41.8647 30.2529 41.4774 29.0444L41.4401 28.9272L35.2095 15.2187C35.0277 14.8184 35.1478 14.3683 35.5178 14.0666L44.5779 6.66575C45.8101 5.66072 46.3044 3.82637 45.0452 2.79975C44.4259 2.29415 43.6362 2.18801 43.0834 2.18801C42.0502 2.18801 40.9939 2.54651 40.2582 3.14636L31.163 10.5353C30.7908 10.8378 30.2364 10.9356 29.7436 10.7854L12.7955 5.6431C12.2119 5.51802 11.6607 5.39999 11.1528 5.39999C10.6617 5.39999 9.97852 5.49732 9.04925 6.25704C7.76948 7.29952 7.01762 8.16626 9.00274 9.80859L20.5153 17.4855C20.809 17.6811 20.9875 17.9691 21.0059 18.2783C21.0248 18.587 20.882 18.8883 20.6132 19.1063L13.0871 25.2211C12.7534 25.4924 12.2692 25.6016 11.8116 25.5082L4.79073 24.0791C4.5933 24.0377 4.42832 24.0179 4.29148 24.0179C4.08431 24.0179 3.97775 24.0557 3.8382 24.1804C3.77383 24.2398 3.68188 24.3169 3.56883 24.4063C3.00359 24.8542 2.85917 25.0643 2.84294 25.1625Z" fill="#4AB449" fill-opacity="0.5"/>
<path d="M25.8005 24.6221C25.4565 24.6221 25.1125 24.5155 24.8496 24.301C24.3254 23.8738 24.3254 23.181 24.8496 22.7538L35.521 14.0648C36.0457 13.6371 36.8971 13.6371 37.4218 14.0648C37.9475 14.492 37.9475 15.1843 37.4218 15.6119L26.7498 24.301C26.488 24.5155 26.144 24.6221 25.8005 24.6221Z" fill="#4AB449" fill-opacity="0.5"/>
<path d="M19.4037 19.6577C19.0597 19.6577 18.7162 19.5511 18.4534 19.3375C17.9281 18.9099 17.9281 18.2171 18.4534 17.7899L29.2617 8.98722C29.7869 8.55913 30.6377 8.55957 31.1624 8.98677C31.6882 9.41442 31.6882 10.1068 31.1629 10.5344L20.3546 19.3371C20.0918 19.5507 19.7477 19.6577 19.4037 19.6577Z" fill="#4AB449" fill-opacity="0.5"/>
</svg>
