<svg width="49" height="19" viewBox="0 0 49 19" fill="none" xmlns="http://www.w3.org/2000/svg">
<path d="M1.64445 15.4464C1.42942 15.381 -0.347394 14.8114 0.920145 12.897C1.65577 11.7857 5.75264 7.57406 10.3135 4.28691C13.1089 2.27913 16.0967 0.607545 18.6317 0.187313C25.2184 -0.90529 47.3551 3.13828 47.423 3.14761C47.4682 3.15695 47.5022 3.16629 47.5361 3.18497C47.6606 3.25034 48.0567 3.47446 48.5547 4.03477C49.1885 4.73516 48.2605 9.98339 48.2491 9.99273C48.2378 10.0861 48.1586 10.1608 48.0567 10.1888L46.5515 10.6464C46.3931 10.6931 46.2233 10.6277 46.1668 10.5063C46.1441 10.4597 46.1441 10.413 46.1554 10.3756C46.1554 10.3663 46.3139 9.69389 46.3705 9.48845L44.8653 9.82463C44.8426 10.1795 44.7181 10.9359 44.141 11.2628C44.1183 11.2721 44.0957 11.2908 44.073 11.2908L31.8504 14.6246C31.6919 14.662 31.5222 14.5966 31.4769 14.4659C31.4429 14.3725 31.4656 14.2791 31.5448 14.2231C31.624 14.1297 32.0541 13.6534 32.0541 13.3359C32.0541 13.0931 31.9975 12.6168 31.9069 12.262C31.8617 12.1032 31.9862 11.9912 31.9183 11.9912C31.7259 11.9912 26.8481 12.9157 25.8748 13.1024C25.6258 13.7375 24.4036 16.3429 21.4837 17.2487C18.2583 18.248 6.59012 18.939 6.55617 18.939C6.38641 18.9483 6.23928 18.8456 6.22796 18.7055C6.22796 18.6495 6.2506 18.6028 6.28455 18.5561C6.28455 18.5561 7.56341 16.9686 6.72593 16.6978C6.40904 16.6511 3.57971 16.2402 1.64445 15.4464ZM1.44074 13.1305C0.490087 14.5873 1.74631 14.9515 1.84816 14.9795C1.85948 14.9888 1.88212 14.9888 1.89343 14.9982C3.82869 15.8013 6.75988 16.2028 6.85042 16.2122C6.87305 16.2215 6.89568 16.2215 6.907 16.2215C8.06137 16.567 7.48418 17.7623 7.07676 18.416C9.44208 18.2573 18.5525 17.6316 21.28 16.7818C24.2112 15.8853 25.275 13.0651 25.3542 12.841C25.3769 12.7476 25.4674 12.6729 25.5806 12.6542C25.5919 12.6449 31.6127 11.4962 31.9183 11.4962C32.2012 11.4962 32.3823 11.7764 32.4841 12.1593C32.586 12.5421 32.6539 13.0651 32.6539 13.3359C32.6539 13.532 32.5633 13.7468 32.4502 13.9429L43.8354 10.8425C44.2768 10.553 44.2768 9.7686 44.2768 9.65654C44.2654 9.53514 44.356 9.42308 44.4918 9.39506L46.427 8.96549C46.495 8.94682 46.5629 8.95615 46.6308 8.97483C46.9024 9.08689 46.8797 9.63786 46.8232 10.0394L47.6833 9.77794C47.8304 8.94682 48.5094 4.80986 48.0794 4.32426C47.6493 3.848 47.3438 3.67057 47.2532 3.62388C46.2686 3.43711 25.0713 -0.382335 18.7449 0.672914C16.3343 1.07447 13.4371 2.69937 10.7096 4.66045C6.19401 7.91024 2.16505 12.0472 1.44074 13.1305Z" fill="#4AB449" fill-opacity="0.8"/>
<path d="M1.12366 15.2127C0.976532 15.1567 0.897311 15.0166 0.953898 14.8952C1.0218 14.7644 1.19156 14.6991 1.35 14.7551C1.36132 14.7551 4.82442 15.9411 9.1929 15.194C10.8679 14.9139 14.5686 13.0462 18.5184 10.8049C24.8221 7.22829 31.7143 2.72714 32.0991 2.20418C32.1784 2.10146 32.2123 2.00807 32.2236 1.93337C32.2349 1.83998 32.2123 1.75593 32.1557 1.69057C32.0991 1.60652 31.986 1.53181 31.8615 1.46644C31.5446 1.31703 31.1258 1.23298 30.7637 1.19563C30.6053 1.17695 30.4808 1.04621 30.5034 0.915471C30.526 0.784732 30.6732 0.682009 30.8429 0.700686C31.273 0.747378 31.7823 0.85944 32.167 1.04621C32.3708 1.14893 32.5405 1.27033 32.665 1.41975C32.7895 1.58784 32.8461 1.77461 32.8121 1.99874C32.7895 2.13881 32.7329 2.28823 32.6084 2.45632C32.2123 3.01663 25.2182 7.60183 18.8579 11.2065C14.8516 13.4851 11.0829 15.3808 9.31739 15.6796C4.76783 16.4547 1.13497 15.2127 1.12366 15.2127Z" fill="#4AB449" fill-opacity="0.8"/>
<path d="M7.33656 16.6696C7.32524 16.6883 7.31393 16.6976 7.30261 16.7163C7.21207 16.8283 7.03099 16.8564 6.89519 16.7817C6.70279 16.6696 6.66884 16.5482 6.79333 16.3988C6.8386 16.3521 6.89519 16.3241 6.95177 16.3054C7.1668 16.2307 7.54027 16.184 8.03824 16.128C8.95494 16.0252 10.3243 15.8665 11.4674 15.5396C12.0559 15.3715 13.3234 14.9513 14.9418 14.419C18.9594 13.093 25.1161 11.0572 28.3415 10.4035C32.8571 9.47896 48.2147 7.52722 48.26 7.51788C48.4297 7.4992 48.5768 7.59258 48.5995 7.73266C48.6221 7.8634 48.5089 7.99414 48.3505 8.01282C48.3052 8.01282 32.9703 9.96456 28.4886 10.8797C25.2971 11.5334 19.1632 13.5505 15.1568 14.8766C13.5384 15.4089 12.2709 15.8291 11.6598 15.9972C10.4601 16.3427 9.05679 16.5108 8.11746 16.6136C7.71003 16.6603 7.44974 16.6509 7.33656 16.6696Z" fill="#4AB449" fill-opacity="0.8"/>
<path d="M9.62271 16.4268C9.46427 16.3895 9.36241 16.2587 9.40768 16.128C9.45295 15.9973 9.6114 15.9132 9.76984 15.9506C9.76984 15.9506 10.4376 16.0906 10.9355 16.5576C11.0374 16.651 11.1053 16.735 11.1732 16.8097C11.3316 16.9778 11.3995 17.0525 12.0673 17.0992C13.0745 17.1646 22.5584 16.1934 22.581 16.1934C22.7508 16.1747 22.8979 16.2774 22.9206 16.4081C22.9319 16.5296 22.8413 16.6416 22.7055 16.679L18.9482 17.7436C18.8011 17.7902 18.6313 17.7155 18.5747 17.5848C18.5181 17.4634 18.5973 17.3233 18.7558 17.2766L19.8649 16.9591C16.9563 17.2393 12.7123 17.6315 12.022 17.5941C11.0713 17.5288 10.9582 17.398 10.6979 17.0992C10.6413 17.0432 10.5847 16.9685 10.4828 16.8844C10.1094 16.5296 9.62271 16.4268 9.62271 16.4268ZM22.7055 16.679C22.6942 16.679 22.6716 16.679 22.6603 16.6883L22.7055 16.679Z" fill="#4AB449" fill-opacity="0.8"/>
<path d="M2.07424 11.9163C2.21005 11.8416 2.40244 11.8696 2.49298 11.9817C2.58352 12.0844 2.56088 12.2431 2.42508 12.3178C2.42508 12.3178 2.56088 12.2431 2.77591 12.3272C3.10412 12.4486 4.3377 12.5887 5.55997 12.6634C6.64643 12.7287 7.68763 12.7381 8.00451 12.6447C8.3214 12.542 8.70618 12.3645 9.10229 12.1498C9.58893 11.8789 10.0982 11.5614 10.5396 11.2439C11.3544 10.6649 18.258 4.41748 18.2806 4.39881C18.3825 4.29608 18.5749 4.28674 18.6994 4.38013C18.8239 4.47351 18.8352 4.62293 18.722 4.72565C18.6994 4.74433 11.7732 11.0105 10.9244 11.6175C10.4604 11.9443 9.93977 12.2805 9.44181 12.5606C9.00043 12.7941 8.57038 12.9996 8.20822 13.1116C7.81212 13.233 6.66907 13.2237 5.5147 13.1583C4.23585 13.0743 2.91172 12.9248 2.52693 12.7661C1.38388 12.3272 2.07424 11.9163 2.07424 11.9163Z" fill="#4AB449" fill-opacity="0.8"/>
<path d="M11.3655 4.29611C11.2071 4.28677 11.0826 4.17471 11.0939 4.03463C11.1052 3.90389 11.241 3.80117 11.4108 3.81051L19.7516 4.26809H19.7629C20.1025 4.27743 25.399 4.40817 26.6099 3.08211L25.614 1.7467C24.4709 1.70001 17.4089 1.40118 15.983 1.52258C15.8132 1.53192 15.6661 1.43853 15.6548 1.29845C15.6321 1.16772 15.7566 1.04632 15.9264 1.02764C17.4768 0.8969 25.3424 1.24242 25.7838 1.2611C25.8856 1.2611 25.9875 1.29845 26.0441 1.37316L27.2211 2.95137H27.2097C27.2663 3.02608 27.2776 3.11946 27.2211 3.20351C26.0554 4.91245 20.0911 4.77237 19.7403 4.76303C19.729 4.76303 19.7177 4.76303 19.7177 4.76303L11.3655 4.29611Z" fill="#4AB449" fill-opacity="0.8"/>
<path d="M22.0835 1.36371C22.1967 1.27033 22.3891 1.27033 22.5023 1.37305C22.6154 1.46644 22.6041 1.62519 22.4909 1.71858L18.8241 4.57615C18.6996 4.66954 18.5186 4.66954 18.4054 4.56681C18.2922 4.46409 18.2922 4.31467 18.4167 4.22129L22.0835 1.36371Z" fill="#4AB449" fill-opacity="0.8"/>
<path d="M9.82708 7.91011L10.9249 6.9389C10.9928 6.88287 11.0833 6.85486 11.1738 6.8642L14.4445 6.9389C14.603 6.94824 14.7388 7.0603 14.7388 7.19104C14.7275 7.24707 14.7048 7.29377 14.6709 7.33112C14.6709 7.33112 13.9466 8.15291 12.7809 8.33034C12.3508 8.39571 11.8529 8.41439 11.4002 8.41439C10.6193 8.41439 9.9063 8.30232 9.8384 8.25563C9.72522 8.16225 9.72522 8.00349 9.82708 7.91011ZM11.2757 7.35914L10.6419 7.91945C10.8456 7.91945 11.1059 7.91945 11.4002 7.92878C11.8189 7.92878 12.2829 7.91011 12.6677 7.84474C13.1204 7.77937 13.4826 7.5926 13.7429 7.41517L11.2757 7.35914Z" fill="#4AB449" fill-opacity="0.8"/>
<path d="M10.4155 7.23774L9.26113 8.24629C9.19322 8.30233 9.114 8.33034 9.02346 8.321C8.8537 8.321 6.86186 8.29299 6.70342 7.87275C6.54497 7.45252 7.49563 6.81751 7.50694 6.81751C7.56353 6.78015 7.63144 6.76147 7.69934 6.76147C7.69934 6.76147 10.1212 6.81751 10.1665 6.81751C10.325 6.79883 10.4721 6.89221 10.506 7.02295C10.5173 7.107 10.4834 7.18171 10.4155 7.23774ZM8.91029 7.82606L9.53274 7.29377C8.91029 7.28443 8.08413 7.26575 7.78988 7.25641C7.62012 7.37781 7.24665 7.64863 7.2806 7.72334C7.30323 7.79805 8.50287 7.82606 8.91029 7.82606Z" fill="#4AB449" fill-opacity="0.8"/>
<path d="M3.57956 11.0571C3.42112 11.0664 3.27399 10.9637 3.26268 10.833C3.25136 10.6929 3.37585 10.5715 3.54561 10.5622C3.55693 10.5622 8.10649 10.282 10.6416 11.1131C10.8 11.1598 10.8679 11.2999 10.8113 11.4306C10.7434 11.552 10.5737 11.6174 10.4265 11.5707C8.01595 10.7863 3.59088 11.0571 3.57956 11.0571Z" fill="#4AB449" fill-opacity="0.8"/>
<path d="M10.6639 11.7576C10.5733 11.6455 10.6073 11.4868 10.7431 11.4121C10.8789 11.3373 11.06 11.3654 11.1505 11.4774C11.1618 11.4868 12.486 13.0743 12.4181 14.2883C12.4181 14.4284 12.2709 14.5311 12.1125 14.5218C11.9427 14.5218 11.8182 14.4004 11.8296 14.2696C11.8861 13.2144 10.6639 11.7576 10.6639 11.7576Z" fill="#4AB449" fill-opacity="0.8"/>
<path d="M32.4386 2.5777C32.2688 2.55902 32.1557 2.43762 32.1783 2.30688C32.2009 2.1668 32.3481 2.07342 32.5178 2.0921L48.181 3.80104C48.3507 3.81972 48.4639 3.94112 48.4413 4.07186C48.4186 4.21193 48.2715 4.30532 48.1017 4.28664L32.4386 2.5777Z" fill="#4AB449" fill-opacity="0.8"/>
<path d="M24.1544 15.5957C23.996 15.6331 23.8262 15.5584 23.781 15.4276C23.7357 15.2969 23.8262 15.1568 23.9847 15.1194L32.2576 13.1303C32.4048 13.093 32.5745 13.1677 32.6198 13.2984C32.6651 13.4292 32.5745 13.5693 32.4161 13.6066L24.1544 15.5957Z" fill="#4AB449" fill-opacity="0.8"/>
<path d="M44.6724 10.5809C44.5139 10.6182 44.3442 10.5435 44.2989 10.4128C44.2536 10.282 44.3555 10.1419 44.5139 10.1046L46.4266 9.65634C46.585 9.61899 46.7548 9.6937 46.8 9.82444C46.8453 9.95518 46.7548 10.0953 46.5963 10.1326L44.6724 10.5809Z" fill="#4AB449" fill-opacity="0.8"/>
<path d="M28.3417 14.531L28.3304 14.559L28.3191 14.5683L28.3077 14.6057L28.2964 14.6244C28.104 15.0633 27.7079 15.4555 27.2326 15.7356C26.7459 16.0251 26.1574 16.2026 25.5916 16.2026C25.2407 16.2026 24.9352 16.1372 24.6862 16.0065C24.4146 15.8757 24.2109 15.689 24.0977 15.4462C24.0411 15.3248 24.1203 15.1847 24.2675 15.1286C24.2788 15.1286 24.2901 15.1286 24.2901 15.1286V15.1193L27.9682 14.2135C28.1267 14.1761 28.2964 14.2508 28.3417 14.3816C28.3643 14.4283 28.353 14.4843 28.3417 14.531ZM26.8818 15.3341C27.1194 15.2034 27.3231 15.0353 27.4816 14.8485L24.8446 15.5022C24.8899 15.5302 24.9352 15.5582 24.9918 15.5862C25.1502 15.6609 25.3539 15.7076 25.5916 15.7076C26.033 15.7076 26.497 15.5676 26.8818 15.3341Z" fill="#4AB449" fill-opacity="0.8"/>
<path d="M31.9745 13.5973L31.9632 13.6346H31.9519L31.9406 13.672V13.6813C31.7482 14.1296 31.3521 14.5218 30.8654 14.8113C30.3788 15.1008 29.7903 15.2782 29.2244 15.2782C28.8736 15.2782 28.568 15.2035 28.3191 15.0821C28.0474 14.9513 27.855 14.7552 27.7419 14.5218C27.674 14.4004 27.7532 14.251 27.9003 14.2043C27.9116 14.2043 27.9229 14.1949 27.9343 14.1949L31.6011 13.2798C31.7595 13.2424 31.9293 13.3171 31.9745 13.4478C31.9972 13.5039 31.9859 13.5506 31.9745 13.5973ZM30.5146 14.4097C30.7523 14.2696 30.956 14.1015 31.1144 13.9241L28.4888 14.5685C28.5228 14.6058 28.568 14.6338 28.6246 14.6619C28.7831 14.7366 28.9868 14.7833 29.2244 14.7833C29.6658 14.7833 30.1298 14.6338 30.5146 14.4097Z" fill="#4AB449" fill-opacity="0.8"/>
<path d="M44.6046 10.553C44.6272 10.5717 44.831 10.525 45.1026 10.4596C45.1478 10.553 45.2497 10.6557 45.4081 10.637C45.6797 10.609 45.9514 10.4409 46.0532 10.2075C46.2909 10.1421 46.472 10.1047 46.472 10.1327C46.472 10.2168 46.4606 10.3102 46.4154 10.3942C46.3475 10.581 46.1777 10.7398 45.9853 10.8518C45.7929 10.9732 45.5553 11.0386 45.3176 11.0386C45.2157 11.0386 45.1252 11.0292 45.046 11.0012H45.0233C44.8875 10.9545 44.7857 10.8892 44.7065 10.7958C44.7065 10.7864 44.6951 10.7864 44.6951 10.7771L44.6046 10.553ZM45.1026 10.4596C45.3968 10.3849 45.7703 10.2728 46.0532 10.2075C45.9514 10.4409 45.6797 10.609 45.4081 10.637C45.2497 10.6557 45.1478 10.553 45.1026 10.4596ZM44.582 10.4689C44.582 10.3942 44.6046 10.3195 44.6386 10.2355V10.2261L44.6499 10.2075C44.6838 10.1234 44.763 10.0767 44.8536 10.0487L46.0419 9.75921C46.189 9.72186 46.3362 9.78722 46.3927 9.89929L46.0872 9.99267L45.046 10.3289L44.582 10.4689Z" fill="#4AB449" fill-opacity="0.8"/>
<path d="M30.5035 10.226C30.4017 10.338 30.2206 10.3661 30.0848 10.2914C29.949 10.2166 29.9037 10.0672 30.0055 9.95517C30.0055 9.95517 30.1866 9.72171 30.1866 9.36685V4.56686V4.55752C30.1866 4.41745 30.2545 3.88515 31.1486 3.93185C32.0766 3.97854 31.9521 6.73339 31.9408 6.93884C31.9521 7.12561 32.0879 9.54428 31.7371 10.0205C31.6579 10.1419 31.4655 10.17 31.3297 10.1046C31.1825 10.0299 31.1373 9.88046 31.2278 9.75906C31.4994 9.4042 31.341 6.95752 31.341 6.94818C31.341 6.93884 31.341 6.9295 31.341 6.92016C31.341 6.92016 31.4881 4.43612 31.1033 4.41745C30.8091 4.40811 30.7864 4.52017 30.7864 4.54819C30.7864 4.55752 30.7864 4.55752 30.7864 4.56686V9.36685C30.7864 9.87112 30.5035 10.226 30.5035 10.226Z" fill="#4AB449" fill-opacity="0.8"/>
<path d="M33.2307 5.28595L33.9211 5.25793H33.9324H33.9437C34.0795 5.25793 34.1927 5.30463 34.2832 5.37C34.3738 5.4447 34.4304 5.54743 34.4417 5.65949V5.66883V7.73263C34.4417 7.8447 34.3851 7.94742 34.2945 8.03147C34.204 8.10617 34.0795 8.15287 33.9437 8.1622L33.2534 8.18088H33.242C33.1062 8.18088 32.9817 8.14353 32.8912 8.06882C32.8007 8.00345 32.7441 7.90073 32.7441 7.78866V7.77933V7.76999H32.7328V5.71552C32.7328 5.59412 32.7893 5.4914 32.8799 5.41669C32.9704 5.34198 33.0949 5.28595 33.2307 5.28595ZM33.8419 5.75287L33.3326 5.77155V7.68594L33.8419 7.66726V5.75287Z" fill="#4AB449" fill-opacity="0.8"/>
<path d="M34.9737 5.24854L35.6188 5.22986H35.6301H35.6414C35.7772 5.22986 35.8904 5.27655 35.9809 5.34192C36.0715 5.40729 36.128 5.51001 36.128 5.61274V5.63141V7.61117C36.128 7.72323 36.0715 7.81662 35.9922 7.90067C35.9017 7.97537 35.7772 8.02207 35.6414 8.02207L34.9963 8.05008H34.985H34.9737C34.8379 8.05008 34.7247 8.00339 34.6342 7.93802C34.5436 7.86331 34.487 7.76993 34.487 7.65787V7.64853L34.9737 5.24854ZM35.5282 5.7248L35.0868 5.74348V7.55514L35.5282 7.53646V5.7248ZM34.487 7.64853V5.66877C34.487 5.55671 34.5323 5.45398 34.6228 5.37927C34.7134 5.30457 34.8379 5.25787 34.9737 5.24854L34.487 7.64853Z" fill="#4AB449" fill-opacity="0.8"/>
<path d="M39.8628 5.16443L40.406 5.14575H40.4287C40.5532 5.14575 40.6663 5.18311 40.7456 5.24848C40.8248 5.31384 40.8814 5.40723 40.8927 5.50061V5.51929V7.23757C40.8927 7.3403 40.8361 7.43368 40.7569 7.50839C40.6777 7.57376 40.5645 7.62045 40.44 7.62979H40.4287L39.8855 7.64847H39.8628C39.7496 7.64847 39.6365 7.61111 39.5459 7.5364C39.4667 7.47104 39.4101 7.38699 39.4101 7.28427V7.26559V5.55665C39.4101 5.45392 39.4554 5.3512 39.5346 5.28583C39.6252 5.21112 39.7383 5.16443 39.8628 5.16443ZM40.2929 5.64069L40.0099 5.65003V7.14419L40.2929 7.13485V5.64069Z" fill="#4AB449" fill-opacity="0.8"/>
<path d="M41.3792 5.1366L41.8885 5.11792H41.9111C42.0243 5.11792 42.1375 5.15527 42.2167 5.22064C42.2959 5.28601 42.3525 5.37006 42.3525 5.47278V5.49146H42.3638V7.11636C42.3638 7.21908 42.3072 7.31246 42.228 7.37783C42.1488 7.4432 42.0356 7.4899 41.9111 7.49923L41.4018 7.51791H41.3792C41.266 7.51791 41.1529 7.48056 41.0736 7.41519C40.9944 7.34982 40.9378 7.25643 40.9378 7.16305V7.14437H40.9265V5.51947C40.9265 5.41675 40.9831 5.32337 41.0623 5.24866C41.1415 5.18329 41.2547 5.1366 41.3792 5.1366ZM41.764 5.61286L41.5263 5.6222V7.01363L41.764 7.00429V5.61286Z" fill="#4AB449" fill-opacity="0.8"/>
<path d="M42.8278 5.10852L43.3144 5.08984H43.3371C43.4502 5.08984 43.5521 5.1272 43.6313 5.19257C43.7105 5.25794 43.7671 5.34198 43.7671 5.43537V5.45404V6.9949C43.7671 7.08828 43.7219 7.18167 43.6426 7.24703L43.6313 7.25637C43.5521 7.32174 43.4502 7.3591 43.3371 7.36843L42.8617 7.38711H42.8391C42.7259 7.38711 42.6128 7.34976 42.5335 7.28439C42.4543 7.21902 42.4091 7.13497 42.3977 7.03225V7.02291V5.48206C42.3977 5.37934 42.4543 5.28595 42.5222 5.22058C42.6014 5.15521 42.7146 5.10852 42.8278 5.10852ZM43.1786 5.58478L42.9976 5.59412V6.88283H43.1786V5.58478Z" fill="#4AB449" fill-opacity="0.8"/>
<path d="M44.2318 5.08044L44.6845 5.06177H44.7071C44.8203 5.06177 44.9221 5.09912 45.0013 5.16449C45.0806 5.22052 45.1258 5.30457 45.1258 5.40729V5.41663H45.1371V6.87343C45.1371 6.96682 45.0806 7.0602 45.0127 7.12557C44.9334 7.19094 44.8316 7.2283 44.7071 7.23764L44.2657 7.25631H44.2431C44.1299 7.25631 44.028 7.21896 43.9488 7.15359C43.8696 7.09756 43.8243 7.01351 43.813 6.91079V6.90145V5.44465C43.813 5.35126 43.8583 5.25788 43.9375 5.19251H43.9488V5.18317C44.028 5.12714 44.1299 5.08978 44.2318 5.08044ZM44.5373 5.56605H44.4128V6.75203H44.5373V5.56605Z" fill="#4AB449" fill-opacity="0.8"/>
<path d="M45.5891 5.06189L45.9965 5.04321H46.0191C46.121 5.04321 46.2228 5.08057 46.302 5.1366C46.3813 5.19263 46.4265 5.27668 46.4379 5.37006V5.38874V6.75216C46.4379 6.84554 46.3926 6.93893 46.3134 6.99496L46.302 7.0043C46.2341 7.06966 46.1323 7.10702 46.0191 7.10702L45.6117 7.1257H45.5891C45.4759 7.1257 45.374 7.08834 45.3061 7.03231L45.2948 7.02297C45.2269 6.9576 45.1816 6.8829 45.1703 6.78951V6.78017V5.40741C45.1703 5.31403 45.2156 5.22998 45.2948 5.16461C45.3627 5.09924 45.4646 5.06189 45.5891 5.06189ZM45.838 5.53815L45.7701 5.54749V6.62142H45.838V5.53815Z" fill="#4AB449" fill-opacity="0.8"/>
<path d="M46.8798 5.03394L47.2533 5.01526H47.2759C47.3778 5.01526 47.4796 5.05261 47.5588 5.10864L47.5702 5.12732C47.6381 5.18335 47.6833 5.25806 47.6833 5.34211V5.36078V6.64016C47.6833 6.7242 47.6381 6.80825 47.5702 6.87362C47.4909 6.93899 47.3891 6.97634 47.2872 6.98568L46.9024 6.99502H46.8911C46.7779 6.99502 46.6761 6.95766 46.6082 6.90163C46.529 6.8456 46.4837 6.76156 46.4837 6.67751L46.4724 6.65883V5.37946C46.4724 5.28607 46.5177 5.20203 46.5969 5.13666C46.6648 5.08063 46.7666 5.03394 46.8798 5.03394ZM47.0835 5.51954H47.0722V6.50008H47.0835V5.51954Z" fill="#4AB449" fill-opacity="0.8"/>
<path d="M38.2896 5.2019L38.8668 5.18323H38.8894C39.0139 5.18323 39.1271 5.22992 39.2176 5.29529C39.3082 5.36066 39.3534 5.45404 39.3647 5.56611V5.57544V7.36843C39.3647 7.4805 39.3082 7.57388 39.2289 7.64859C39.1384 7.7233 39.0252 7.76999 38.8894 7.77933L38.3122 7.798H38.3009C38.1651 7.798 38.0519 7.76065 37.9614 7.68594C37.8822 7.62057 37.8256 7.52719 37.8143 7.41513V7.40579V5.6128C37.8143 5.50074 37.8709 5.40735 37.9614 5.33264C38.0406 5.25794 38.1651 5.21124 38.2896 5.2019ZM38.7423 5.70618L38.4367 5.71552V7.27505L38.7423 7.26571V5.70618Z" fill="#4AB449" fill-opacity="0.8"/>
<path d="M36.6712 5.24854L37.2597 5.22986H37.2823C37.4068 5.22986 37.5313 5.26721 37.6218 5.34192C37.7124 5.40729 37.769 5.51001 37.769 5.62207V5.63141H37.7803V7.48977C37.7803 7.60183 37.7237 7.70456 37.6332 7.77927C37.5426 7.85397 37.4181 7.90067 37.2823 7.91L36.6938 7.92868H36.6712C36.5354 7.92868 36.4222 7.89133 36.3317 7.81662C36.2411 7.74191 36.1845 7.64853 36.1732 7.53646V7.51779V5.66877C36.1732 5.55671 36.2298 5.45398 36.3203 5.37927C36.3996 5.30457 36.5241 5.24854 36.6599 5.24854H36.6712ZM37.1239 5.76215L36.8183 5.77149V7.39639L37.1239 7.38705V5.76215Z" fill="#4AB449" fill-opacity="0.8"/>
</svg>
