<svg width="28" height="18" viewBox="0 0 28 18" fill="none" xmlns="http://www.w3.org/2000/svg">
<path d="M16.9441 12.1556C16.9441 12.1556 19.0834 11.4006 19.6435 11.2192C20.2019 11.0372 20.7805 10.9912 21.1318 11.1235C21.6639 11.3241 26.1317 13.1561 26.5079 13.3183C26.884 13.4808 27.0653 13.9449 26.548 14.3996C26.0329 14.8543 23.6563 16.6521 22.6493 16.6329C21.6407 16.6127 17.4471 16.556 9.53921 11.6801C1.63291 6.80574 1.53939 4.22006 1.50716 3.59831C1.47493 2.97688 4.39145 1.51159 5.12903 1.19371C5.86767 0.876159 6.62164 0.995689 6.8837 1.21911C7.18169 1.47348 10.1193 4.21875 10.4427 4.53337C10.6641 4.74833 10.5827 5.10692 10.2874 5.45151C9.9936 5.79674 8.76887 7.11547 8.76887 7.11547C8.76887 7.11547 9.6322 8.02318 12.5519 9.82264C15.4721 11.6224 16.9441 12.1556 16.9441 12.1556Z" stroke="white" stroke-width="2" stroke-miterlimit="10"/>
</svg>
