<svg width="33" height="24" viewBox="0 0 33 24" fill="none" xmlns="http://www.w3.org/2000/svg">
<path fill-rule="evenodd" clip-rule="evenodd" d="M28.6032 0C30.7409 0 32.4764 1.28035 32.4764 2.85734V20.5298C32.4764 22.1067 30.7409 23.3871 28.6032 23.3871H22.0111V14.5751H26.1348L26.9194 10.8012H22.0111V8.35207C22.0111 7.31961 22.6967 6.31319 24.8952 6.31319H27.1268V3.10021C27.1268 3.10021 25.1015 2.84523 23.1652 2.84523C19.1228 2.84523 16.4807 4.65266 16.4807 7.9248V10.8012H11.9872V14.5751H16.4807V23.3871H4.64814C2.51053 23.3871 0.775002 22.1067 0.775002 20.5298V2.85734C0.775002 1.28035 2.51047 0 4.64814 0L28.6032 0Z" fill="white"/>
</svg>
