<svg width="35" height="31" viewBox="0 0 35 31" fill="none" xmlns="http://www.w3.org/2000/svg">
<path d="M20.8507 21.6683C20.8507 21.6683 23.5248 20.2966 24.2249 19.967C24.923 19.6362 25.6462 19.5528 26.0854 19.793C26.7505 20.1576 32.3352 23.4861 32.8054 23.7808C33.2756 24.0761 33.5022 24.9193 32.8556 25.7454C32.2117 26.5715 29.241 29.8379 27.9822 29.803C26.7214 29.7663 21.4795 29.6633 11.5946 20.8043C1.71172 11.9483 1.59482 7.25045 1.55453 6.12081C1.51424 4.99177 5.15989 2.32951 6.08187 1.75197C7.00517 1.17502 7.94762 1.39219 8.2752 1.79813C8.64769 2.26028 12.3198 7.24808 12.724 7.81971C13.0007 8.21026 12.899 8.86177 12.5298 9.48783C12.1626 10.1151 10.6317 12.5111 10.6317 12.5111C10.6317 12.5111 11.7108 14.1602 15.3604 17.4296C19.0107 20.6996 20.8507 21.6683 20.8507 21.6683Z" stroke="#4AB449" stroke-width="2" stroke-miterlimit="10"/>
</svg>
