<svg width="28" height="18" viewBox="0 0 28 18" fill="none" xmlns="http://www.w3.org/2000/svg">
<path d="M17.0011 12.1556C17.0011 12.1556 19.1404 11.4006 19.7005 11.2192C20.259 11.0372 20.8375 10.9912 21.1889 11.1235C21.7209 11.3241 26.1887 13.1561 26.5649 13.3183C26.9411 13.4808 27.1223 13.9449 26.605 14.3996C26.0899 14.8543 23.7133 16.6521 22.7063 16.6329C21.6977 16.6127 17.5041 16.556 9.59622 11.6801C1.68992 6.80574 1.5964 4.22006 1.56417 3.59831C1.53194 2.97688 4.44846 1.51159 5.18604 1.19371C5.92468 0.876159 6.67864 0.995689 6.94071 1.21911C7.2387 1.47348 10.1764 4.21875 10.4997 4.53337C10.7211 4.74833 10.6397 5.10692 10.3444 5.4515C10.0506 5.79674 8.82588 7.11547 8.82588 7.11547C8.82588 7.11547 9.68921 8.02318 12.6089 9.82264C15.5291 11.6224 17.0011 12.1556 17.0011 12.1556Z" stroke="white" stroke-width="2" stroke-miterlimit="10"/>
</svg>
