<svg width="15" height="8" viewBox="0 0 15 8" fill="none" xmlns="http://www.w3.org/2000/svg">
<path d="M13.6509 0.231167C13.4251 0.0624024 13.1347 -0.018849 12.8429 0.00511375C12.5512 0.0290765 12.2817 0.156311 12.0933 0.3591L7.412 5.43752L2.73068 0.359184C2.54276 0.155599 2.27309 0.0278505 1.98099 0.00404118C1.68889 -0.0197681 1.3983 0.0623121 1.17313 0.232225C0.947971 0.402138 0.806681 0.645966 0.780348 0.910069C0.754015 1.17417 0.844796 1.43692 1.03272 1.6405L6.56301 7.64077C6.66676 7.75325 6.79658 7.84375 6.94329 7.90585C7.08999 7.96796 7.25001 8.00015 7.412 8.00015C7.57399 8.00015 7.734 7.96796 7.88071 7.90585C8.02741 7.84375 8.15723 7.75325 8.26098 7.64077L13.7913 1.64042C13.9791 1.43662 14.0699 1.17375 14.0435 0.909527C14.0172 0.645302 13.876 0.401323 13.6509 0.231167Z" fill="#4AB449" fill-opacity="0.5"/>
</svg>
