<svg width="79" height="71" viewBox="0 0 79 71" fill="none" xmlns="http://www.w3.org/2000/svg">
<path d="M78.0257 35.5C78.0257 54.7838 60.7196 70.5 39.2629 70.5C17.8061 70.5 0.5 54.7838 0.5 35.5C0.5 16.2162 17.8061 0.5 39.2629 0.5C60.7196 0.5 78.0257 16.2162 78.0257 35.5Z" stroke="#25D366"/>
<g clip-path="url(#clip0_1_274)">
<path d="M39.2628 58C25.5214 58 14.3779 47.9245 14.3779 35.5C14.3779 23.0755 25.5214 13 39.2628 13C53.0043 13 64.1478 23.0755 64.1478 35.5C64.1478 47.9245 53.0043 58 39.2628 58Z" fill="#25D366"/>
<path fill-rule="evenodd" clip-rule="evenodd" d="M50.904 25.024C47.8183 22.2295 43.7073 20.6905 39.3325 20.686C30.3192 20.686 22.9782 27.319 22.9782 35.473C22.9782 38.0785 23.7297 40.6255 25.1631 42.8665L22.8438 50.53L31.5137 48.4735C33.9026 49.6525 36.5902 50.2735 39.3275 50.2735H39.3325C48.3458 50.2735 55.6819 43.6405 55.6869 35.4865C55.6919 31.5355 53.9947 27.8185 50.904 25.024ZM39.3375 47.776H39.3325C36.8938 47.776 34.4999 47.182 32.4145 46.0615L31.9168 45.796L26.7706 47.0155L28.1443 42.4795L27.8208 42.016C26.462 40.0585 25.7404 37.7995 25.7404 35.473C25.7454 28.696 31.8422 23.1835 39.3425 23.1835C42.9757 23.1835 46.3849 24.466 48.953 26.788C51.5212 29.11 52.9346 32.2015 52.9296 35.482C52.9296 42.2635 46.8279 47.776 39.3375 47.776ZM46.793 38.569C46.3849 38.3845 44.3742 37.489 44.0009 37.3675C43.6277 37.246 43.3539 37.183 43.0802 37.552C42.8065 37.921 42.0251 38.7535 41.7862 39.001C41.5473 39.2485 41.3084 39.28 40.9003 39.0955C40.4922 38.911 39.1733 38.5195 37.6155 37.2595C36.4011 36.2785 35.5799 35.068 35.341 34.699C35.1021 34.33 35.3161 34.1275 35.5202 33.943C35.7043 33.7765 35.9283 33.511 36.1323 33.295C36.3364 33.079 36.4061 32.926 36.5404 32.6785C36.6748 32.431 36.6101 32.215 36.5056 32.0305C36.4011 31.846 35.5849 30.028 35.2464 29.2855C34.913 28.5655 34.5795 28.6645 34.3257 28.651C34.0868 28.642 33.8131 28.6375 33.5443 28.6375C33.2706 28.6375 32.8276 28.732 32.4543 29.101C32.0811 29.47 31.0259 30.3655 31.0259 32.1835C31.0259 34.0015 32.4892 35.761 32.6932 36.004C32.8973 36.2515 35.5749 39.982 39.6759 41.584C40.6514 41.9665 41.4129 42.1915 42.0052 42.3625C42.9856 42.646 43.8765 42.6055 44.5783 42.511C45.3646 42.403 46.9971 41.6155 47.3355 40.756C47.674 39.892 47.674 39.154 47.5744 39.001C47.4749 38.848 47.2011 38.758 46.793 38.569Z" fill="white"/>
</g>
<defs>
<clipPath id="clip0_1_274">
<rect width="49.7698" height="45" fill="white" transform="translate(14.3779 13)"/>
</clipPath>
</defs>
</svg>
